<svg width="60" height="60" viewBox="0 0 60 60" fill="none" xmlns="http://www.w3.org/2000/svg">
<circle cx="30" cy="30" r="30" fill="black"/>
<path d="M30 48C34.8079 48 39.328 46.1276 42.7279 42.7279C46.1276 39.3281 48 34.8079 48 30C48 25.1921 46.1276 20.6719 42.7279 17.2721C39.3281 13.8723 34.8079 12 30 12C20.0747 12 12 20.0747 12 30C12 34.8079 13.8723 39.3281 17.2721 42.7279C20.6719 46.1276 25.1921 48 30 48Z" fill="black"/>
<path d="M12.623 30.0022C12.623 25.3607 14.4306 20.9969 17.7128 17.7147C20.9949 14.4325 25.3587 12.625 30.0002 12.625C34.6418 12.625 39.0056 14.4325 42.2877 17.7147C45.5698 20.9969 47.3774 25.3606 47.3774 30.0022C47.3774 39.584 39.582 47.3794 30.0002 47.3794C25.3587 47.3794 20.9949 45.5718 17.7128 42.2897C14.4306 39.0075 12.623 34.6437 12.623 30.0022Z" fill="white"/>
<path d="M30.0009 13.3438C20.7993 13.3438 13.3398 20.8033 13.3398 30.0047C13.3398 39.2062 20.7993 46.6658 30.0009 46.6658C39.2024 46.6658 46.6619 39.2062 46.6619 30.0047C46.6619 20.8033 39.2024 13.3438 30.0009 13.3438Z" fill="black"/>
<path d="M29.998 40.6444C24.1204 40.6444 19.3555 35.8796 19.3555 30.0019C19.3555 24.1243 24.1204 19.3594 29.998 19.3594C35.8756 19.3594 40.6405 24.1243 40.6405 30.0019C40.6405 35.8796 35.8757 40.6444 29.998 40.6444Z" fill="white"/>
<path d="M20.043 30.0047H30.0008V20.0469C24.5013 20.0469 20.043 24.5053 20.043 30.0047ZM30.0008 30.0047V39.9626C35.5003 39.9626 39.9586 35.5042 39.9586 30.0047H30.0008Z" fill="black"/>
<path d="M22.1778 19.8472C21.825 19.5043 21.2797 19.401 20.7678 19.7184C20.8655 19.4649 20.8256 19.2063 20.7737 19.0636C20.5531 18.6615 20.4762 18.6111 20.2944 18.4586C19.706 17.9649 19.0867 18.3864 18.6438 18.9142L16.5039 21.4644L19.8678 24.2871L22.1245 21.5978C22.6401 20.9833 22.7198 20.3741 22.1778 19.8472ZM30.5562 18.6354L31.7114 15.5734V18.6354H32.5894V14.25H31.2702L30.0704 17.3899H30.0828L28.8829 14.25H27.5638V18.6354H28.4418V15.5734L29.5971 18.6354H30.5562ZM42.3606 20.4599L40.7076 22.8002L43.2703 21.5836L43.9488 22.4215L39.9152 24.3767L39.1189 23.3854L40.7054 21.0656L40.6961 21.054L38.0971 22.1235L37.2929 21.1385L40.0442 17.5996L40.7227 18.4375L38.9998 20.6913L41.6327 19.5609L42.3606 20.4599Z" fill="white"/>
<path d="M19.1134 19.5431C19.2623 19.3656 19.5989 19.3729 19.8153 19.5545C20.0533 19.7541 20.0538 20.0372 19.894 20.2276L18.6232 21.742L17.8281 21.0748L19.1134 19.5431ZM21.3744 21.3297L20.0346 22.9264L19.1945 22.2214L20.5451 20.6117C20.6976 20.4299 21.0377 20.377 21.2671 20.5695C21.5267 20.7873 21.5524 21.1177 21.3744 21.3297Z" fill="black"/>
</svg>
