<svg width="215" height="74" viewBox="0 0 215 74" fill="none" xmlns="http://www.w3.org/2000/svg">
<path d="M35.9533 0H37.9777L39.5567 0.0809759L41.3382 0.242928L42.8362 0.445367L44.6177 0.769271L45.8728 1.05269L47.6543 1.53854L49.1119 2.0244L50.2455 2.42928L51.5411 2.95562L52.9582 3.60343L54.4158 4.33221L55.3875 4.89904L56.2377 5.3849L57.2499 6.0327L58.1407 6.64002L58.8695 7.16637L59.9221 7.97612L60.3675 8.34052L60.8939 8.78588L61.4607 9.27174L62.4324 10.1625L63.9709 11.701L64.2544 12.0249L64.6997 12.5108L65.0641 12.9561L65.5905 13.5635L66.1168 14.2518L66.5622 14.8186L67.0885 15.5474L67.6958 16.4381L68.3436 17.4503L68.8295 18.2601L69.3558 19.1913L69.8417 20.1225L70.4085 21.2562L71.0158 22.6328L71.5827 24.0903L72.2305 25.9933L72.7163 27.7342L73.1617 29.7181L73.4451 31.3782L73.6476 32.9977L73.8095 35.0221L73.85 36.3582V37.4918L73.8095 38.8279L73.688 40.4474L73.5666 41.5406L73.4046 42.7148L73.1617 44.1319L72.8378 45.6299L72.3924 47.2899L71.9471 48.707L71.5422 49.8811L70.9754 51.2982L70.3275 52.7558L69.4368 54.5373L68.87 55.509L68.5461 56.0758L68.0602 56.8451L67.5339 57.6548L67.048 58.3431L66.5217 59.0719L66.1168 59.5982L65.5905 60.2461L65.2666 60.6509L64.7402 61.2583L64.0114 62.068L63.4446 62.6753L62.3109 63.809L61.987 64.0924L61.4202 64.6188L60.9748 64.9831L60.57 65.3475L60.0031 65.7929L59.3958 66.2788L58.748 66.7646L57.9382 67.3314L57.088 67.8983L56.1973 68.4651L55.1446 69.0724L53.9704 69.7202L52.7558 70.3275L51.2982 70.9754L49.8407 71.5422L48.3426 72.0685L46.6826 72.5544L45.0631 72.9593L43.4031 73.2832L42.1075 73.4856L40.326 73.688L38.666 73.8095L37.4918 73.85H36.2772L35.0626 73.8095L32.9977 73.6476L31.3782 73.4451L29.5157 73.1212L27.6128 72.6758L26.1552 72.271L24.5357 71.7446L22.8352 71.0968L21.742 70.611L20.7703 70.1656L19.3937 69.4773L18.422 68.9105L17.6932 68.5056L16.8835 67.9792L16.3166 67.6149L14.94 66.6431L14.3732 66.1978L13.8469 65.7929L13.1991 65.2666L12.7942 64.9022L12.3488 64.5378L11.701 63.9305L11.0127 63.2826L10.203 62.4729L9.91955 62.149L9.51467 61.7441L9.15027 61.2987L8.70491 60.8129L8.34052 60.3675L7.81417 59.7197L7.32832 59.0719L6.76149 58.3026L6.11368 57.3714L5.7088 56.7236L5.22294 55.9543L4.6966 55.0231L4.29172 54.2943L3.60343 52.9582L3.0366 51.7031L2.55074 50.5289L2.0244 49.1119L1.53854 47.6138L1.05269 45.8323L0.688295 44.1723L0.404879 42.5528L0.161952 40.6094L0.0404879 38.9899L0 38.0587V35.7104L0.0809759 34.1718L0.20244 32.8357L0.404879 31.2567L0.728783 29.4752L1.09317 27.8557L1.37659 26.803L1.70049 25.7098L2.30781 23.9284L2.79367 22.7137L3.19855 21.7825L3.72489 20.6488L4.21075 19.6771L4.6966 18.7864L5.34441 17.6932L5.83026 16.924L6.35661 16.1142L6.88295 15.3854L7.28783 14.8186L7.69271 14.2922L8.17856 13.6849L8.46198 13.3205L8.82637 12.9157L9.19076 12.4703L9.63613 11.9844L9.79808 11.782H9.87906L9.96003 11.62L10.6078 10.9722L10.8913 10.6483L11.3771 10.203L11.7415 9.83857L12.0654 9.55515L12.5917 9.0693L13.0371 8.70491L13.6039 8.21905L14.1303 7.81417L14.6971 7.3688L15.4259 6.84246L16.2357 6.27563L17.1669 5.66831L18.0171 5.14197L19.0293 4.57514L19.4747 4.33221L20.4059 3.84635L21.0537 3.52245L22.4708 2.87464L23.9284 2.30781L24.6976 2.0244L26.0742 1.57903L27.6937 1.13366L29.4347 0.728783L31.4996 0.364391L33.2406 0.161952L34.8601 0.0404879L35.9533 0Z" fill="white"/>
<mask id="path-2-inside-1_1475_1285" fill="white">
<path d="M24.8541 20.0781H48.9444L49.8351 20.1996L50.6854 20.4425L51.3332 20.7259L51.981 21.1308L52.6288 21.6572L53.1146 22.1835L53.479 22.7098L53.7624 23.1957L54.0054 23.803L54.2483 24.6533L54.8556 27.5279L55.1795 29.026L55.22 29.1069L56.5966 29.1474L56.5561 27.8113V27.0421L56.6371 26.7586L56.8395 26.5562L57.0825 26.4347L61.9005 26.3942L63.0342 26.4347L63.2771 26.5967L63.4391 26.7991L63.4795 27.0016V30.686L63.3581 31.0099L63.1556 31.1718L62.5078 31.3338L60.119 31.7387L57.4064 32.184H57.0825L56.7586 32.0221L56.6371 31.8601L56.5966 31.7387V30.443H55.4629L55.7868 31.7387L56.1512 33.3177L56.3537 33.4796L56.8395 33.763L57.4064 34.1679L57.8922 34.6133L58.2971 35.0182L58.7829 35.7065L59.1069 36.2733L59.4308 37.0426L59.6332 37.8523L59.7547 38.7431L60.119 42.8728L60.2 44.2899V51.0919L60.0786 51.8612L59.9166 52.266L59.6332 52.7114L59.1473 53.1973L58.7829 53.4402L58.2566 53.6426L57.9327 53.7236L53.3981 53.7641H52.1834L51.6166 53.6831L50.9688 53.4402L50.5234 53.1568L50.1185 52.7519L49.7946 52.1851L49.6327 51.7397L49.5517 51.2133L49.5112 49.9177H24.3277L24.2872 51.1729L24.2062 51.7397L23.9633 52.347L23.5584 52.9138L23.2345 53.1973L22.7892 53.4807L22.2223 53.6831L21.615 53.7641H16.2706L15.7443 53.6831L15.1774 53.4807L14.7726 53.2377L14.3677 52.8734L14.1248 52.5494L13.8818 52.0636L13.7604 51.5777L13.7199 51.2133L13.6794 49.3509V44.7353L13.7604 42.9133L14.1248 38.8645L14.2462 37.9333L14.4487 37.1235L14.6511 36.5972L14.975 35.9494L15.3799 35.3421L15.7443 34.8967L16.3516 34.2894L17.0804 33.763L17.7282 33.3987L17.8496 32.9128L18.3355 30.443L17.2828 30.4835V31.5767L17.1209 31.9411L16.8374 32.1435L16.554 32.184L14.813 31.9006L11.1286 31.2933L10.6023 31.1313L10.3999 30.8884L10.3594 30.7265V26.8396L10.4808 26.6372L10.8047 26.4347L11.1691 26.3942H16.3921L16.8374 26.4347L17.0804 26.5967L17.2423 26.8396L17.2828 27.4874V29.1474L18.6189 29.1069L18.8214 28.2567L19.4287 25.4225L19.7526 24.0459L19.9955 23.4386L20.2789 22.8718L20.6028 22.3859L21.0887 21.8191L21.3721 21.5357L21.9389 21.0903L22.6677 20.645L23.4775 20.3211L24.1658 20.1591L24.8541 20.0781Z"/>
</mask>
<path d="M24.8541 20.0781H48.9444L49.8351 20.1996L50.6854 20.4425L51.3332 20.7259L51.981 21.1308L52.6288 21.6572L53.1146 22.1835L53.479 22.7098L53.7624 23.1957L54.0054 23.803L54.2483 24.6533L54.8556 27.5279L55.1795 29.026L55.22 29.1069L56.5966 29.1474L56.5561 27.8113V27.0421L56.6371 26.7586L56.8395 26.5562L57.0825 26.4347L61.9005 26.3942L63.0342 26.4347L63.2771 26.5967L63.4391 26.7991L63.4795 27.0016V30.686L63.3581 31.0099L63.1556 31.1718L62.5078 31.3338L60.119 31.7387L57.4064 32.184H57.0825L56.7586 32.0221L56.6371 31.8601L56.5966 31.7387V30.443H55.4629L55.7868 31.7387L56.1512 33.3177L56.3537 33.4796L56.8395 33.763L57.4064 34.1679L57.8922 34.6133L58.2971 35.0182L58.7829 35.7065L59.1069 36.2733L59.4308 37.0426L59.6332 37.8523L59.7547 38.7431L60.119 42.8728L60.2 44.2899V51.0919L60.0786 51.8612L59.9166 52.266L59.6332 52.7114L59.1473 53.1973L58.7829 53.4402L58.2566 53.6426L57.9327 53.7236L53.3981 53.7641H52.1834L51.6166 53.6831L50.9688 53.4402L50.5234 53.1568L50.1185 52.7519L49.7946 52.1851L49.6327 51.7397L49.5517 51.2133L49.5112 49.9177H24.3277L24.2872 51.1729L24.2062 51.7397L23.9633 52.347L23.5584 52.9138L23.2345 53.1973L22.7892 53.4807L22.2223 53.6831L21.615 53.7641H16.2706L15.7443 53.6831L15.1774 53.4807L14.7726 53.2377L14.3677 52.8734L14.1248 52.5494L13.8818 52.0636L13.7604 51.5777L13.7199 51.2133L13.6794 49.3509V44.7353L13.7604 42.9133L14.1248 38.8645L14.2462 37.9333L14.4487 37.1235L14.6511 36.5972L14.975 35.9494L15.3799 35.3421L15.7443 34.8967L16.3516 34.2894L17.0804 33.763L17.7282 33.3987L17.8496 32.9128L18.3355 30.443L17.2828 30.4835V31.5767L17.1209 31.9411L16.8374 32.1435L16.554 32.184L14.813 31.9006L11.1286 31.2933L10.6023 31.1313L10.3999 30.8884L10.3594 30.7265V26.8396L10.4808 26.6372L10.8047 26.4347L11.1691 26.3942H16.3921L16.8374 26.4347L17.0804 26.5967L17.2423 26.8396L17.2828 27.4874V29.1474L18.6189 29.1069L18.8214 28.2567L19.4287 25.4225L19.7526 24.0459L19.9955 23.4386L20.2789 22.8718L20.6028 22.3859L21.0887 21.8191L21.3721 21.5357L21.9389 21.0903L22.6677 20.645L23.4775 20.3211L24.1658 20.1591L24.8541 20.0781Z" fill="black" stroke="black" stroke-width="4" mask="url(#path-2-inside-1_1475_1285)"/>
<path d="M54.1006 48.9365L54.0352 48.8213L53.873 48.5381L53.8076 48.4248L53.6963 48.3574L53.4932 48.2354L53.4033 48.1816L53.2979 48.168L52.9746 48.1279L52.9443 48.124H52.915L44.8223 48.085L44.7881 45.6211V45.5752L44.7783 45.5303L44.6973 45.125L44.6631 44.9521L44.5273 44.8389L44.2842 44.6367L44.1572 44.5303L43.9912 44.5215L43.2217 44.4805H30.3779L30.3555 44.4824L29.9102 44.5225L29.8018 44.5322L29.708 44.5859L29.4238 44.748L29.334 44.7998L29.2725 44.8828L29.1504 45.0449L29.083 45.1348L29.0605 45.2461L29.0195 45.4492L29.0107 45.4971V48.085L20.6816 48.124H20.5918L20.5088 48.1562L20.1846 48.2773L20.042 48.3311L19.9531 48.4551L19.751 48.7383L19.6572 48.8682V49.5264L19.7236 49.6416L19.8857 49.9248L19.9531 50.043L20.0713 50.1104L20.3545 50.2725L20.4658 50.3359L20.5947 50.3389L22.4922 50.3711V51.165L22.3857 51.459L22.2168 51.6826L22.0273 51.8457L21.8145 51.9521L21.7275 51.9707H16.3262L16.0938 51.9189L15.8838 51.792L15.8682 51.7607L15.7295 51.4844H15.623L15.5693 51.3965L15.5156 51.125V44.292L15.5947 42.7158L15.877 39.4863L15.9961 38.375L16.1436 37.7139L16.3242 37.2051L16.6514 36.5869L17.0176 36.1104L17.1455 35.9658H17.3604L17.4639 35.6504L17.9678 35.2734L18.4795 34.9814L18.9863 34.7637L19.6855 34.5801L20.3047 34.5078H53.7217L54.3682 34.6152L55.0273 34.835L55.624 35.1328L56.1309 35.46L56.5049 35.7969L56.668 35.96L56.9678 36.2969L57.2959 36.8086L57.5879 37.3906L57.8086 38.0898L57.9219 38.8848L58.2852 43L58.3643 44.4941V51.0439L58.3057 51.334L58.2012 51.543L58.0439 51.7266L57.7822 51.9014L57.5977 51.9707H52.0303L51.7588 51.8721L51.4453 51.5869L51.3623 51.4424L51.2666 50.9268V50.3691L52.8818 50.3389L52.9258 50.3379L53.375 50.248L53.499 50.2227L53.5967 50.1416L53.8398 49.9395L53.9199 49.8721L53.9668 49.7783L54.0479 49.6172L54.1006 49.5117V48.9365Z" fill="black" stroke="white"/>
<path d="M48.7578 21.8281L49.3682 21.8994L49.9727 22.0771L50.5605 22.3711L50.96 22.625L51.3242 22.917L51.6357 23.2285L51.96 23.6963L52.2461 24.2344L52.4678 24.9775L52.8281 26.6553L53.8809 31.6738V31.6768L54 32.2344L53.7783 32.2461H50.7676L19.8057 32.2051L21.1738 25.6816L21.1729 25.6807L21.4053 24.6748L21.624 24.0889L21.875 23.624L22.2344 23.1562L22.666 22.7246L23.0146 22.4805L23.3564 22.292L23.6357 22.1514L24.1338 21.9736L24.7021 21.8672L47.7715 21.8281H48.7578Z" fill="black" stroke="white"/>
<path d="M54.3555 38.2812L54.7646 38.3623L55.0605 38.4854L55.3467 38.6855L55.4209 38.7441L55.6777 39.1025L55.8789 39.5928L55.9648 40.0488V40.6514L55.8496 41.166L55.627 41.6406L55.3906 41.9297L55.1982 42.0977L54.9746 42.2314L54.5332 42.3701L54.3232 42.3945H48.2422L47.875 42.3154L47.4941 42.1523L47.2217 41.9619L46.9639 41.7305L46.7227 41.3545L46.5557 40.9385L46.5469 40.8818V40.4277L46.6289 40.1602L46.7725 39.9229L46.8359 39.8457L47.0381 39.7041L47.2627 39.6143L48.0088 39.4355L50.9395 38.8701L53.8564 38.3066L54.04 38.2812H54.3555Z" fill="white" stroke="white" stroke-width="2"/>
<path d="M20.3535 38.3672L21.6855 38.5957V38.5947L24.8174 39.1973V39.1982L26.7881 39.5918L27.1904 39.7158L27.3984 39.8193L27.5645 39.9688L27.7119 40.2646L27.7383 40.3652V40.6826L27.6318 41.1074L27.4043 41.5615L27.1846 41.8369L26.9795 42.042L26.6426 42.25L26.3691 42.3496L26.0996 42.3994H20.0283L19.6592 42.3418L19.2529 42.207L19.001 42.0469L18.7695 41.8154L18.5488 41.4287L18.4043 41.0508L18.3203 40.6289V40.0898L18.4062 39.6309L18.5801 39.1982L18.751 38.9287L19.0322 38.6475L19.2705 38.5039L19.5967 38.3682L19.6064 38.3672H20.3535Z" fill="white" stroke="white" stroke-width="2"/>
<path d="M42.0322 47.2344V47.583H31.8047V47.2344H42.0322Z" fill="white" stroke="white" stroke-width="2"/>
<path d="M54.2441 39.5215L54.4385 39.6025L54.5303 39.6836L54.666 39.8965L54.7432 40.1484V40.5361L54.6719 40.7666L54.5469 40.9453L54.4287 41.0488L54.3066 41.1035H48.2852L48.2266 41.0801L47.9561 40.832L47.9336 40.7998L48.21 40.7256L51.3281 40.0869L51.335 40.0859L53.9756 39.5244L54.0801 39.5068L54.2441 39.5215Z" fill="black" stroke="black" stroke-width="2"/>
<path d="M20.3438 39.5781L24.4512 40.3672V40.3682L26.3848 40.7617L26.4023 40.7666L26.3438 40.8555L26.2041 40.9951L25.9951 41.1006H20.0273L19.9277 41.0605L19.7959 40.958L19.6758 40.7861L19.584 40.5342L19.5781 40.502V40.1973L19.6436 39.9375L19.748 39.7266L19.8262 39.6582L19.9883 39.5781H20.3438Z" fill="white" stroke="black" stroke-width="2"/>
<path d="M61.1445 28.6875V29.2412L58.8125 29.626V28.6875H61.1445Z" fill="black" stroke="black" stroke-width="2"/>
<path d="M14.9883 28.6875V29.6172L14.1025 29.457L14.0957 29.4551L14.0879 29.4541L12.6562 29.2148V28.6875H14.9883Z" fill="white" stroke="black" stroke-width="2"/>
<path d="M214.378 24.9181V31.1784H197.242V24.9181H214.378ZM201.132 17.7188H209.024V45.7336C209.024 46.5031 209.135 47.103 209.358 47.5334C209.58 47.9508 209.889 48.2442 210.284 48.4138C210.691 48.5833 211.161 48.6681 211.692 48.6681C212.062 48.6681 212.433 48.6355 212.803 48.5703C213.174 48.492 213.458 48.4334 213.656 48.3942L214.897 54.5958C214.502 54.7263 213.946 54.8762 213.229 55.0458C212.513 55.2284 211.642 55.3392 210.617 55.3784C208.715 55.4566 207.048 55.1893 205.616 54.5763C204.195 53.9633 203.09 53.0112 202.3 51.72C201.509 50.4288 201.12 48.7985 201.132 46.8291V17.7188Z" fill="white"/>
<path d="M175.204 37.6074V54.9798H167.312V24.9303H174.834V30.232H175.167C175.797 28.4844 176.853 27.1019 178.335 26.0846C179.817 25.0542 181.614 24.5391 183.726 24.5391C185.702 24.5391 187.425 24.9955 188.894 25.9085C190.364 26.8215 191.506 28.1257 192.322 29.8212C193.137 31.5036 193.544 33.5122 193.544 35.8467V54.9798H185.652V37.3336C185.665 35.4946 185.22 34.0599 184.319 33.0296C183.417 31.9862 182.176 31.4645 180.595 31.4645C179.533 31.4645 178.594 31.7058 177.779 32.1884C176.976 32.6709 176.347 33.3752 175.89 34.3012C175.445 35.2142 175.217 36.3163 175.204 37.6074Z" fill="white"/>
<path d="M149.624 55.5667C146.697 55.5667 144.178 54.9406 142.066 53.6886C139.966 52.4235 138.348 50.6367 137.212 48.3282C136.076 46.0067 135.508 43.2613 135.508 40.092C135.508 37.001 136.076 34.2882 137.212 31.9536C138.348 29.619 139.948 27.7996 142.01 26.4954C144.085 25.1912 146.518 24.5391 149.309 24.5391C151.186 24.5391 152.934 24.8586 154.552 25.4977C156.182 26.1237 157.602 27.0693 158.813 28.3344C160.035 29.5995 160.986 31.1906 161.665 33.1078C162.345 35.012 162.684 37.2423 162.684 39.7985V42.0875H138.657V36.9227H155.256C155.256 35.7228 155.009 34.6599 154.515 33.7339C154.021 32.8079 153.335 32.084 152.458 31.5623C151.594 31.0276 150.587 30.7602 149.439 30.7602C148.241 30.7602 147.179 31.0537 146.252 31.6406C145.339 32.2145 144.622 32.9905 144.104 33.9686C143.585 34.9338 143.319 36.0098 143.307 37.1966V42.107C143.307 43.5939 143.566 44.8785 144.085 45.961C144.616 47.0435 145.363 47.8782 146.327 48.4651C147.29 49.0521 148.432 49.3455 149.754 49.3455C150.631 49.3455 151.433 49.2151 152.162 48.9542C152.891 48.6934 153.514 48.3021 154.033 47.7804C154.552 47.2587 154.947 46.6197 155.219 45.8632L162.518 46.3719C162.147 48.2239 161.388 49.8411 160.239 51.2236C159.103 52.593 157.633 53.6625 155.83 54.432C154.039 55.1885 151.971 55.5667 149.624 55.5667Z" fill="white"/>
<path d="M110.838 41.0439H117.656L121.083 45.7L124.454 49.8475L130.809 58.2597H123.324L118.953 52.5863L116.711 49.2214L110.838 41.0439ZM131.383 34.9401C131.383 39.3093 130.599 43.0263 129.03 46.0913C127.474 49.1562 125.35 51.4973 122.658 53.1146C119.978 54.7188 116.964 55.5209 113.617 55.5209C110.246 55.5209 107.22 54.7122 104.54 53.095C101.86 51.4777 99.7419 49.1367 98.1857 46.0717C96.6296 43.0068 95.8516 39.2962 95.8516 34.9401C95.8516 30.5709 96.6296 26.8539 98.1857 23.789C99.7419 20.724 101.86 18.3894 104.54 16.7852C107.22 15.168 110.246 14.3594 113.617 14.3594C116.964 14.3594 119.978 15.168 122.658 16.7852C125.35 18.3894 127.474 20.724 129.03 23.789C130.599 26.8539 131.383 30.5709 131.383 34.9401ZM123.25 34.9401C123.25 32.1099 122.849 29.7232 122.046 27.7799C121.256 25.8366 120.138 24.3628 118.693 23.3586C117.248 22.3543 115.556 21.8522 113.617 21.8522C111.678 21.8522 109.986 22.3543 108.541 23.3586C107.096 24.3628 105.973 25.8366 105.17 27.7799C104.379 29.7232 103.984 32.1099 103.984 34.9401C103.984 37.7703 104.379 40.157 105.17 42.1003C105.973 44.0436 107.096 45.5174 108.541 46.5217C109.986 47.5259 111.678 48.0281 113.617 48.0281C115.556 48.0281 117.248 47.5259 118.693 46.5217C120.138 45.5174 121.256 44.0436 122.046 42.1003C122.849 40.157 123.25 37.7703 123.25 34.9401Z" fill="white"/>
</svg>
