<svg width="60" height="60" viewBox="0 0 60 60" fill="none" xmlns="http://www.w3.org/2000/svg">
<circle cx="30" cy="30" r="30" fill="black"/>
<path d="M31.5927 33.0768L31.552 32.774L30.94 32.2502L30.7528 32.2109L30.6214 32.3428L30.6416 32.4997L30.4343 32.6314L30.4141 32.8133L30.6569 32.9059L30.9957 33.0768H31.5927Z" fill="white" stroke="white" stroke-width="0.5" stroke-miterlimit="2.613"/>
<path d="M30.4004 32.7333L30.4135 32.7109" stroke="white" stroke-width="0.5" stroke-miterlimit="2.613"/>
<path d="M27.4624 34.3277L27.3712 34.4847L27.4321 34.7696L27.6394 35.4074L27.9984 36.2484L28.2968 36.7508L28.6962 37.3922L28.9795 37.7699L29.4145 38.3258L29.9352 38.9455L30.345 39.3449L30.6887 39.6691L30.704 39.8473L30.6586 39.9934L30.4666 40.0468L29.8898 40.0681L28.8784 40.0256L28.0441 39.9505L27.3108 39.8579L26.4204 39.6799L25.9704 39.5409L25.6721 39.4483L25.333 39.4054L24.9437 39.4161L24.7366 39.4802H24.4533L23.7807 39.4054L23.3963 39.3128L22.9766 39.2914L22.3089 39.281L21.8032 39.2487H21.338L20.8779 39.27L20.5642 39.3624L20.3416 39.4054L20.2656 39.4802L20.2809 39.6265L20.4932 39.8685L20.8929 40.2572L21.1306 40.3282L21.5049 40.5172L21.9346 40.6849L22.3999 40.7915L23.0676 40.8023L23.6643 40.7594L24.17 40.6778L24.6 40.5815L24.782 40.6456L24.868 40.7702L25.0197 40.8023L25.3888 40.7915L25.854 40.8131L26.092 40.8664L26.375 40.8131L27.2955 40.8945L27.9225 40.9588L28.9492 41.1159L29.6975 41.2724L30.4362 41.4508L31.0878 41.661L31.3411 41.7892L32.014 41.8106L32.3727 41.7465L32.5648 41.472L32.7719 41.1372L32.7123 40.8664L32.4593 40.5278L32.1206 40.036L31.8517 39.523L31.6545 38.9455L31.569 38.4504V37.9693L31.6397 37.4028L31.731 37.1175L31.6244 36.8756L31.4023 36.7508L30.9572 36.5192L30.6428 36.3624L30.5832 36.0594L30.4362 35.7352L30.1576 35.418L29.8595 35.1473L29.4855 34.8946L29.0098 34.6412L28.4738 34.3596L28.1905 34.2636L27.9075 34.2031L27.6698 34.2314L27.4624 34.3277Z" fill="white" stroke="white" stroke-width="0.5" stroke-miterlimit="2.613"/>
<path d="M25.7338 13.0834L25.7288 13.2224L25.5215 13.2545L25.2535 13.2297L24.8489 13.2901L24.5456 13.3579L24.3027 13.3687L24.2268 13.4435L24.3128 13.5469L24.4951 13.5754L24.6669 13.5398L24.8642 13.4791L25.0666 13.472L25.4963 13.4863L25.825 13.5575L26.2143 13.6253L26.7859 13.807L26.8367 13.8926L26.776 13.9602L26.508 14.028L26.3463 14.0815L26.0581 14.2168L25.6182 14.3808L25.0822 14.6482L24.4702 14.8441L23.9847 15.0688L23.5448 15.2043L23.1301 15.2755L22.7659 15.2826L22.2651 15.2898L22.0728 15.3254L21.9616 15.4894L21.8756 15.6676L21.7794 15.7887L21.5365 16.0453L21.3037 16.3302L21.1469 16.4692L21.1316 16.6296L21.1469 16.854V17.0927L21.3543 17.2246L21.5365 17.2923L21.754 17.2815L22.1081 17.2138L22.5075 17.1283L23.0487 16.9751L23.2662 16.9822L23.3167 17.0785L23.2662 17.171L23.0839 17.2388L22.5326 17.3849L22.1179 17.4704L22.037 17.5666L22.0217 17.67L22.1583 17.7555L22.4466 17.7803H22.6793L22.9725 17.7732L23.2913 17.7197L23.7517 17.5485L24.0552 17.5058L24.3131 17.47L24.5103 17.5164L24.7986 17.5058L25.0819 17.5308L25.3147 17.6271L25.6788 17.6519L26.1542 17.7553L26.4121 17.7801L26.8116 17.7302L27.3225 17.7553L27.5448 17.8157L27.6664 17.9618L27.641 18.1507L27.5804 18.3822L27.4591 18.6494L27.2872 18.9844L27.1154 19.3515L26.9331 19.6864L26.8118 19.918L26.3971 20.3742L25.8963 20.8194L25.4464 21.2578L24.8748 21.6603L24.3489 21.9738L24.015 22.2231L23.8383 22.633L23.5905 22.8397L23.2768 22.9964L22.8976 23.2172L22.316 23.4667L21.8256 23.6412L21.5122 23.8942L21.2895 24.0975L21.0671 24.1937L20.7538 24.3042L20.5516 24.2721L20.1522 24.1437L19.7071 23.9406L19.0547 23.7375L18.3214 23.4667L17.9422 23.2636L17.4718 22.9964L16.9559 22.6971L16.3997 22.5546L15.9093 22.494L15.2823 22.5866L14.8372 22.7612L14.4528 22.95L14.2556 23.2955L14.119 23.5629L13.9622 23.9725L13.7854 24.2218L13.6084 24.6032L13.5832 25.0594L13.4264 25.3266L13.2494 25.7506L13.0925 26.1747L12.8043 26.5703L12.6475 26.9622L12.5565 27.4504L12.3087 27.8602L12.1519 28.0954L12.1317 28.3307L12.1115 28.7262V29.4175L12 29.7024L12.0658 29.9519L12.0402 30.3617L12.2426 30.6895L12.3994 30.7679L12.6877 30.7036L12.9554 30.5324L13.3398 30.2046L13.6737 29.8269L13.8051 29.5134L13.7193 29.2604L13.6078 28.9468L13.4712 28.5692L13.3398 28.1738L13.269 27.8743V27.5928L13.36 27.2758L13.5824 26.7911L13.8048 26.5381L14.0072 26.4099L14.1638 26.2388L14.4523 26.2209L14.5889 26.1605L14.7911 26.0321L15.0135 25.8931L15.2156 25.7042L15.3014 25.4836L15.3724 25.2948L15.3927 25.0419L15.4585 24.8211L15.6153 24.6821L15.7721 24.6499L15.9743 24.6963L16.2628 24.8068L16.5762 25.0598L16.91 25.4053L17.2893 25.7189L17.6939 25.9718L18.0529 26.1749L18.4058 26.2852L18.517 26.4421L18.4058 26.5206L18.0264 26.46L17.4903 26.4278L16.7975 26.3316L16.13 26.239L15.326 26.2211L14.8558 26.239L14.4971 26.3957L14.1179 26.6309L13.8042 27.0086L13.5614 27.4361L13.5362 27.7497L13.6728 28.3162L13.9862 29.0396L14.143 29.6062L14.3403 30.1584L14.4769 30.5471L14.5427 30.9105L14.7195 31.3203L14.8561 31.9475L14.9875 32.1683L15.3263 32.3571L15.6399 32.5777L15.9937 32.9556L16.2415 33.3974L16.6207 33.7893L17.1772 34.167L17.5816 34.3416L17.8493 34.3558L18.0717 34.3094L18.2083 34.0888L18.3599 33.9L18.4509 33.6328V33.0197L18.3397 32.8451C18.3195 32.8451 18.3195 32.7348 18.3195 32.7206L18.2739 32.6103L18.0917 32.4216L17.7578 32.1862L17.1357 31.9975L16.9081 31.9475L16.8677 31.6803L16.8879 31.5092L16.4631 31.1635L16.1951 30.7215L15.9724 30.0941L15.7905 29.5134L15.482 29.0571L15.3708 28.5049L15.5476 28.1736L15.8612 28.0489H16.1038L16.4628 28.2698L16.9786 28.4908L17.5147 28.6298L18.8091 29.0716L19.4364 29.3245V29.5598L20.0128 29.7948L20.7513 29.9694H22.2938L22.1826 30.1727L22.1171 30.283L22.3143 30.5467L22.6935 30.9423L23.3006 31.3661L24.0339 31.9329L24.6609 32.3246L25.8343 32.9589L26.7851 33.3186L27.4981 33.586L28.4136 34.0243L29.2581 34.4484L29.9865 34.8831L30.7449 35.6065L30.7801 35.9091L30.952 36.2228L31.4173 36.4581L31.8424 36.5757L32.1055 36.5505L32.3134 36.4082L32.6117 36.1838L32.6827 35.881L33.0365 35.4498L33.1122 35.1183L33.1682 34.7514L33.2035 34.4627L33.3199 34.2813L33.5573 34.1993H33.7851L33.8002 34.3204L33.6338 34.4486L33.4871 34.7264L33.3756 34.8975V35.1077L33.3354 35.5532L33.2447 35.7776L32.9663 36.116L32.5918 36.5511L32.218 37.0248L31.9959 37.6414L31.8844 38.2864L31.9959 39.0062L32.1426 39.4268L32.4964 39.979L32.9464 40.6347L33.3002 41.1477L33.7854 41.6859L34.3616 42.1849L34.4731 42.3558V42.4734L34.3974 42.6195L34.1952 42.8547L33.8766 43.1683L33.224 43.7601L32.5713 44.2586L31.9746 44.7187L31.717 44.8255L31.1908 44.968L30.8771 45.1784L30.7102 45.4171L30.3362 45.7447L29.9119 46.0723L29.3909 46.4537L29.0721 46.8456L28.8849 47.2412L28.7737 47.5688L28.7939 47.8325L29.0163 48H29.8359L30.1895 47.9752L30.5594 47.8187L31.0446 47.6618L31.12 47.5299H31.2869L31.5446 47.4514L31.7874 47.2912L31.9191 46.6641L31.8429 46.5318L31.8077 46.4L31.9394 46.4248L32.0855 46.4533L32.2377 46.3748L32.4806 46.2679L32.7382 46.0327L33.0568 45.7156L33.2237 45.4271L33.2589 45.1917L33.4666 45.0846L33.7649 44.9672L34.0078 44.8638L34.21 44.5753L34.64 44.2584L35.4435 43.7345L36.0552 43.4459L36.6729 43.2072L36.8188 43.1038L36.8748 42.9968L37.0057 42.8794L36.9144 42.7229L36.895 42.4341L36.8136 42.1637L36.7174 42.007L36.5052 41.7504L36.1667 41.4509L36 41.2264L35.9645 40.991V40.6741L36.0399 40.4926L36.2421 40.0044L36.4492 39.7692L36.6721 39.6766L37.0813 39.4949L37.5668 39.2027L38.2195 38.811L38.6646 38.4831L39.1143 38.1161L39.5795 37.7455L39.9137 37.3286L40.1918 36.972L40.4549 36.5661L40.642 36.1168L40.698 35.7002L40.7333 35.3832L40.8852 35.2798L41.0518 35.2515L41.1986 35.3195L41.33 35.5403L41.3652 35.8429L41.4264 36.1314L41.3862 36.3278L41.3505 36.6306V37.2756L41.4616 37.7852L41.5925 37.917L41.704 37.9062L41.7594 37.8136L41.6838 37.6034V37.2467L41.8357 36.9474L41.9067 36.5127L41.9821 36.2098L42.0788 36.0673H42.19L42.2807 36.1314L42.372 36.3809L42.4474 36.6196L42.4121 36.9973L42.3007 37.5105L41.9622 38.0096L41.6491 38.4833L41.4614 38.8895L41.4261 39.139L41.4614 39.4275L41.5922 39.7053H41.8354L41.9619 39.5842L41.8906 39.4524L41.8354 39.2169L42.0575 39.0065L42.3157 38.7571L42.4875 38.522L42.8968 38.062L43.2309 37.6414L43.3776 37.1815L43.5088 36.5759V35.9736L43.3424 35.553L43.0083 35.2251L42.9678 35.0686L43.12 35.0153L43.3074 35.0792L43.5503 35.2896L43.8486 35.6708L43.9751 36.1158L44.0508 36.7074L44.2382 37.1172L44.2585 37.128L44.5161 37.5341L44.6827 37.5769L44.7581 37.47L44.7382 37.4057L44.6114 37.1031L44.5915 36.8003L44.6114 36.3551L44.7229 35.8561V35.6067L44.6827 35.3965L44.3841 34.9757L44.1262 34.6729L44.2175 34.5554L44.5721 34.5021L45.0568 34.3456L45.5778 34.1493L46.043 33.8607L46.64 33.2944L46.9785 32.8241L47.2569 32.3752L47.3481 31.6555L47.3684 31.0104L47.2216 30.2123L47.0498 29.635L46.9031 29.0435L46.8118 28.4271L46.8831 28.0352L47.0348 27.547L47.3481 27.0623L47.7978 26.5635L47.9648 26.2465L48 26.0898L47.8538 25.9474L47.6473 25.879V26.1037L47.4804 26.2355L47.182 26.5491L47.0151 26.6275L46.5498 27.023L46.363 27.2332L46.1406 27.5861L45.8977 27.6146L45.6753 27.522L45.5436 27.1014L45.5794 26.6169L45.7313 26.1678L46.1009 25.7472L46.8487 24.9597L47.2946 24.3183L47.3498 23.8692L47.2787 23.7267L47.1479 23.8193L46.9255 24.2112L46.5867 24.6068L46.0857 24.8956L45.5095 25.2875L44.65 25.9966L44.4833 25.9859L44.4278 25.8648L44.4076 25.576L44.4631 25.038L44.7262 24.4359L45.1915 23.766L45.8083 23.228L46.572 22.7683L46.643 22.6614L46.5517 22.6116L46.1627 22.754L45.8436 22.9001L45.3026 23.228L44.6303 23.6486L44.1494 24.1082L43.6793 24.7104L43.4216 25.1985L43.3459 25.6833L43.3102 26.3389L43.5325 27.023L43.7549 27.6146L44.1847 28.5447L44.4631 29.66L44.63 30.5115V30.9715L44.5587 31.456L44.4481 31.852L44.2402 32.2971L43.4563 32.9918L42.6569 33.5048L41.6305 33.911L40.6442 33.95L40.5134 33.6114L40.1596 33.1233L39.6741 32.653L39.3555 32.3754L38.9307 31.9692L38.0146 31.3531L37.0844 30.815L36.6751 30.5902L35.3902 29.9773L33.5444 28.8868L32.5377 28.0067L31.4356 26.7347L31.1369 25.9722L31.2124 25.4983L31.3643 25.4057L31.7541 25.5909L32.371 25.8011L32.8721 25.7868L33.448 25.9722L34.0652 26.2359L34.3837 26.4176L34.7935 26.6173L35.2184 26.6565L35.3145 26.5247L35.2031 26.5104L35.0719 26.5497L34.8648 26.4571L34.6823 26.2611L34.4198 25.9581L33.9138 25.6305L33.4133 25.4987L33.1346 25.4594L33.1906 25.356H33.5797L34.0296 25.4594L34.6821 25.7622L34.9809 25.8548L35.0919 25.7477L34.9042 25.566L34.3985 25.2488L33.6146 24.9602L32.6685 24.7002L32.4817 24.5933L32.6685 24.5007L33.0936 24.6469L33.878 24.7394L34.717 24.9747L35.1621 25.1314L35.9459 25.2097L36.5076 25.1564L36.8207 25.053L37.2507 24.8676L37.4382 24.7394L37.4584 24.6469L37.2843 24.6569L37.1182 24.7779L36.5617 24.9063L36.0762 24.9597L35.6664 24.9204L35.2722 24.6996L34.9184 24.4074L34.4935 24.1866L33.8564 24.094L33.2444 23.9479L32.9814 23.8303L33.0016 23.7271L33.2444 23.7519H33.7854L34.3261 23.7271H34.8826L35.1812 23.6878L35.4241 23.8303L35.8131 23.898H36.1317L36.2784 23.8197L36.0208 23.7662L35.7022 23.6201L35.3681 23.3993L34.8271 23.1997L34.3821 23.1604L33.9728 23.1211L33.8206 23.057L34.1195 22.9394H34.6045L34.979 23.0178L35.3484 23.1498L35.9451 23.3315L36.5418 23.3458L36.8603 23.2389L36.9516 23.0963L36.7087 23.0179L36.2082 23.0037L35.7782 22.9003L35.4044 22.6759L34.9946 22.5298L34.4539 22.4657L33.9887 22.3481L33.7865 22.1629L33.8217 22.0703L34.1206 22.113L34.4946 22.1914L34.717 22.309L35.0356 22.3338L35.0708 22.2162L34.7372 22.031L34.6405 21.8635L35.0902 21.9134L35.5151 22.0701L36.056 22.1128L36.2636 22.3871L36.8196 22.6224L36.8499 22.6187L36.9715 22.5831L37.1182 22.519L37.0469 22.4406L36.8393 22.4512L36.6521 22.2695L36.2776 21.8633L35.6254 21.4537L34.958 21.2435L34.7706 21.0868L34.3608 20.7447L33.9868 20.6023L33.9313 20.4704L34.0977 20.3921L34.4925 20.4562L35.2711 20.6129L35.6457 20.7055L35.8885 20.9442L36.2776 21.0868H36.5762L36.9707 21.1652L37.4002 21.1116L37.5671 21.0083L37.3242 20.8622L36.9704 20.7981L36.5606 20.7588L36.3175 20.6127L35.9989 20.2849L35.9235 20.0747L35.5137 19.8144L35.0686 19.6148L34.5624 19.3938L34.0064 19.0269L33.9712 18.9199H34.0971L34.8255 19.326L35.5692 19.6288L35.9637 19.8391L36.4647 20.1667L36.9144 20.3376L37.1726 20.3911L37.3037 20.245L37.1169 20.1952L36.727 19.9457L36.6158 19.6679L36.2065 19.3543L35.8678 19.1547L35.7008 18.8554L35.1247 18.2498L34.3408 17.7651L34.305 17.6084L34.5832 17.6332L34.9779 17.7759L35.6096 17.9611L36.2623 17.9861L36.7478 18.1464L37.2685 18.2105L37.7135 18.1179L37.6783 17.9861L37.1723 17.9075L36.727 17.7651L35.832 17.4623L35.347 17.2771L35.0889 17.0561L35.1801 16.9776L35.3113 17.0417L35.5134 17.0952L35.7765 17.1094H36.2065L36.5754 17.081L37.1374 17.0561L37.5668 17.1737L38.0119 17.3982L38.1993 17.4375L38.2195 17.3198L38.0673 17.213L37.6223 16.9243L36.9297 16.6748L36.4292 16.6355L35.4785 16.5962L35.2563 16.4111L34.7711 16.069L34.2302 15.8089L34.028 15.6771L34.1949 15.5845L34.4526 15.6628L34.9176 15.834L35.4435 15.9658L36.1516 16.0834H36.7636L37.2696 16.479L37.6794 16.65L37.8261 16.5431L37.2696 15.9658L36.3945 15.5206L35.6661 15.3995L35.0492 14.9433L34.5083 14.7188L33.7649 14.587L34.1747 14.3377L34.9025 14.1666L35.4435 14.0489L35.57 13.9315L35.4992 13.8389L35.2003 13.7856L34.9176 13.7463L32.8139 13.7748L32.4399 13.4826L32.0148 13.2866L31.4741 13.1155L30.7657 13.037H30.1537L29.987 12.8803L29.4106 12.4456L28.7177 12L28.2929 12.499L28.2727 12.6556L28.4751 12.8408L28.4953 12.9975L28.3489 13.0901L27.8784 13.1149L27.0236 12.9438L26.184 12.8162L25.7944 12.8268L25.1573 12.9194L25.233 13.0763L25.5871 13.0655L25.7338 13.0834Z" fill="white" stroke="white" stroke-width="0.5" stroke-miterlimit="2.613"/>
<path d="M33.1887 29.5004L32.3691 28.7519L31.6607 28.0179L31.1347 27.4408L30.9328 27.0453L30.8216 26.6639L30.6897 26.4039L30.4826 26.3363L30.2799 26.3754L30.2094 26.6248L30.3564 27.0595L30.7102 27.6903L31.1549 28.1997L31.6607 28.6488L32.2172 29.0407L32.5508 29.2651L33.1887 29.5004ZM22.0269 16.0989L21.8296 16.2912L21.7485 16.4872L21.784 16.6262L21.8802 16.6689L22.1583 16.6262L22.3657 16.5444L22.5124 16.4408L22.5932 16.2485L22.5124 16.1559L22.3353 16.0525L22.1886 16.0419L22.0269 16.0989ZM27.3369 15.5821H27.5645L27.777 15.5253L27.7921 15.3755L27.7112 15.2046L27.615 15.0442L27.423 14.9514L27.1752 14.9193L26.8361 14.9301L26.6238 15.0548L26.5277 15.1938L26.5935 15.3185L26.8211 15.4111L27.0637 15.5037L27.3369 15.5821ZM45.5682 29.5431L45.4368 29.6357L45.4627 29.8032L45.5023 30.1025L45.5482 30.4199L45.5783 30.6938L45.5583 31.0076L45.5381 31.3568L45.4469 31.6704L45.3403 31.9447L45.1584 32.2121L44.9212 32.4864L44.6781 32.7539L44.4202 32.9996L44.1827 33.2204L44.0513 33.3878L43.9549 33.5411L43.9748 33.6552L44.0972 33.6943L44.3245 33.6552L44.769 33.3557L45.1584 33.035L45.4168 32.7782L45.6447 32.4792L45.7955 32.2049L45.928 31.8914L46.0233 31.5243L46.0334 31.3568V30.6869L45.9575 30.3556L45.8509 30.0099L45.7201 29.7213L45.6548 29.5752L45.5682 29.5431ZM25.9359 31.6989L26.1941 31.9021L27.0435 32.4223L27.5139 32.7179L27.9336 32.9855L28.2724 33.2098L28.3382 33.2843L28.3838 33.338L28.2521 33.331L27.9134 33.1811L27.3418 32.9141L26.4569 32.4935L26.0979 32.3222L25.7187 32.1125L25.304 31.845L25.0005 31.6777L24.6363 31.4282L24.3986 31.2538L24.2519 31.0933L24.1964 30.9008L24.2065 30.7227L24.3024 30.6548L24.4693 30.6619L24.7324 30.7726L25.0155 30.9651L25.2231 31.1427L25.4455 31.2998L25.663 31.4887L25.9359 31.6989ZM24.0194 23.6209L24.0295 23.5247L24.1205 23.4535L24.439 23.3609L25.1015 23.2148L25.7641 23.1576H26.1687L26.5025 23.2076L26.8159 23.3181L27.0637 23.4893L27.079 23.5853L27.0487 23.6531L26.9424 23.6673L26.7807 23.6531L26.5329 23.603L26.3001 23.5534L26.0119 23.5318H25.6529L25.3493 23.5283L25.0813 23.5462L24.783 23.5817L24.5453 23.628L24.3128 23.6637L24.1609 23.6708L24.0549 23.6602L24.0194 23.6209ZM32.5155 31.6633L32.4191 31.8521L32.3789 32.0015L32.2983 32.2727L32.2724 32.4898L32.3437 32.5507L32.4904 32.5647L32.5658 32.5218L32.601 32.408L32.7133 32.244L32.824 32.1549L32.9455 32.0765L33.0212 31.952L33.0007 31.7416L32.8953 31.6313L32.8341 31.5916H32.6923L32.5868 31.6065L32.5155 31.6633ZM32.7234 38.1521H32.627L32.5508 37.9918L32.5456 37.8099L32.601 37.5604L32.7275 37.2185L32.9354 37.0081L33.1226 36.8445L33.2892 36.8301L33.3346 36.9369L33.2338 37.1652L33.0914 37.443L33.0212 37.5783L32.8895 37.7887L32.7887 38.0345L32.7587 38.1055L32.7234 38.1521ZM39.2416 35.0092L39.1208 35.1161L39.1407 35.2872L39.3527 35.4937L39.3839 35.7182L39.4333 35.7825L39.5301 35.8004L39.6355 35.7575L39.6667 35.6576L39.7167 35.5473L39.7374 35.4296V35.2728L39.7065 35.1553L39.5902 35.052L39.4893 34.9879L39.368 34.9807L39.2416 35.0092ZM29.9414 46.8859L29.734 47.0316L29.6581 47.1387L29.6329 47.2314L29.6531 47.3061L29.719 47.3417H29.7796L29.9212 47.3204L30.0676 47.2528L30.1586 47.1564L30.2345 47.0532L30.2799 46.9213L30.2657 46.8466L30.2094 46.8145L30.0982 46.818L29.9414 46.8859ZM31.4634 45.3249L31.291 45.3998L31.2055 45.4749L31.1954 45.5388L31.2457 45.6031L31.332 45.6206L31.4486 45.5923L31.544 45.5531L31.621 45.4782L31.6664 45.3998L31.6505 45.3357L31.5899 45.3107L31.4634 45.3249ZM34.3162 43.3257L33.6179 43.8214L33.042 44.2595L32.6322 44.5802L32.6114 44.6693L32.6568 44.7226L32.7529 44.7263L32.8996 44.6585L33.1627 44.4911L33.4971 44.2774L33.8559 44.0137L34.1944 43.7823L34.4927 43.5361L34.7159 43.3045L34.7755 43.2011L34.7159 43.148L34.6446 43.137L34.4468 43.2262L34.3162 43.3257ZM36.0049 42.6028L35.9035 42.6773L35.8735 42.738L35.8893 42.7986L35.959 42.8273H36.0202L36.1114 42.7559L36.2122 42.6918L36.2573 42.6419L36.2532 42.6028L36.2021 42.5848L36.0915 42.5811L36.0049 42.6028ZM33.5567 39.891H33.4764L33.4411 39.9231L33.431 40.0296V40.208L33.4813 40.4005L33.5676 40.5395L33.7496 40.7497L33.8709 40.8744L33.9365 40.8954L33.9722 40.8923L33.9916 40.8602L33.9463 40.6962L33.9009 40.6144L33.8963 40.5537L33.8911 40.3826L33.8356 40.1689L33.7545 40.0086L33.6436 39.9162L33.5567 39.891ZM22.0015 39.6521L21.8195 39.6769L21.6627 39.7127L21.6171 39.7591L21.6122 39.8232L21.693 39.8944L21.7485 39.9266L21.8701 39.9514L22.0067 39.9481L22.0722 39.9337L22.1531 39.8659L22.1987 39.791L22.2189 39.7306L22.2036 39.6769L22.1381 39.6486L22.0015 39.6521ZM27.1801 40.0584L26.735 39.9585L26.6692 39.9764L26.6542 40.0513L26.7047 40.1189L27.0435 40.1974L27.5189 40.3008L28.1207 40.4074L28.3838 40.4219L28.6568 40.4324L28.9199 40.4646L29.2182 40.5002L29.39 40.4933L29.4458 40.4432V40.3755L29.4004 40.3327L29.2436 40.3042L28.9655 40.2615L28.6215 40.2438L28.2573 40.2045L27.8374 40.1726L27.5847 40.1476L27.3773 40.1154L27.1801 40.0584ZM31.2615 40.1618L31.1249 40.233L31.0989 40.3008L31.1249 40.3612L31.2055 40.3862L31.3522 40.3612L31.4533 40.3042L31.5087 40.233V40.176L31.4735 40.1439H31.362L31.2615 40.1618ZM17.6269 33.3772L17.4802 33.3557L17.4195 33.3665L17.3941 33.4308L17.4247 33.5411L17.5004 33.5909L17.6067 33.605L17.6928 33.559L17.7078 33.4877L17.6928 33.4273L17.6269 33.3772ZM14.6533 28.9125L14.5976 29.1904L14.6077 29.4719L14.6684 29.7142L14.7848 29.9708L14.9011 30.1346L14.982 30.2594L15.0326 30.3269L15.0981 30.3662H15.1336L15.164 30.3341L15.1894 30.238L15.1186 29.9067L15.0681 29.7034L14.9517 29.4719L14.8555 29.2545L14.8506 29.0834L14.7949 28.9159L14.7391 28.8803H14.6837L14.6533 28.9125ZM18.8812 28.5667L18.9063 28.5098L18.8861 28.4385L18.7648 28.36L18.5323 28.2853L18.2086 28.1856L17.9304 28.0894L17.6269 28.0358L17.4499 27.9896L17.2881 27.9931L17.4094 28.0572L17.7635 28.2068L18.0772 28.3708L18.3957 28.5098L18.5323 28.5525L18.7293 28.5739L18.8812 28.5667ZM14.446 26.7887L14.2941 26.974L14.2892 27.1022L14.3498 27.1378L14.4408 27.113L14.5318 27.0239L14.5924 26.9242L14.638 26.8493V26.7425L14.5673 26.7103L14.4913 26.7353L14.446 26.7887ZM28.9248 19.0741L28.7477 19.0955L28.5152 19.2524L28.065 19.7583L27.5896 20.4068L27.3219 20.781L27.0233 21.2157L26.6594 21.6113L26.5684 21.761L26.5834 21.8143L26.6796 21.818L26.9779 21.736L27.4077 21.419L27.974 20.8594L28.3281 20.3962L28.6466 20.0255L28.8843 19.5873L28.9906 19.3128L29.0007 19.1596L28.9248 19.0741ZM20.5095 25.0747L20.6106 25.1033L20.6412 25.1888L20.5652 25.4953L20.3527 25.9157L20.1655 26.3184L19.8369 26.6069L19.6699 26.6961L19.4929 26.7425L19.3918 26.6924L19.3817 26.5998L19.5235 26.493L19.6699 26.3219L19.8571 26.0333L19.9686 25.759L20.0696 25.4881L20.2666 25.2281L20.3983 25.0962L20.5095 25.0747ZM14.4714 24.184L14.2588 24.444L14.1627 24.8004L14.1373 24.9894V25.1282L14.1829 25.1994L14.3143 25.1746L14.5572 24.9108L14.6935 24.5973L14.7998 24.3193L14.805 24.1233L14.7443 24.0592L14.5826 24.0914L14.4714 24.184ZM17.1515 24.722L17.1668 24.8004L17.2272 24.8539L17.3638 24.9501L17.5108 25.0356L17.6824 25.1033L17.8039 25.1567L17.8545 25.1532L17.8799 25.1211L17.8747 25.0606L17.8089 24.9929L17.7029 24.9037L17.5258 24.8288L17.4144 24.7576L17.3185 24.6972L17.2324 24.6864L17.1819 24.6827L17.1515 24.722ZM15.6393 23.0687L15.3866 23.09L15.2651 23.1507L15.2246 23.2467L15.2601 23.3181L15.4017 23.3572L15.6342 23.3395L15.877 23.2752L15.9478 23.1934L15.9429 23.1328L15.862 23.0794L15.7708 23.0615L15.6393 23.0687ZM28.2674 24.6899L28.4344 24.722L28.4849 24.7861L28.5051 24.9286L28.5303 25.0783L28.48 25.1852L28.3737 25.2281L28.1158 25.2315L27.944 25.2031L27.8475 25.1139L27.7669 25.0427V24.9286L27.8931 24.8146L28.0855 24.7078L28.2674 24.6899ZM23.8877 15.4966L24.1205 15.3576L24.5505 15.2117L24.9802 15.0762L25.3898 14.9407L25.5769 14.8766L25.7187 14.8623L25.8348 14.8802L25.9258 14.9836L25.8651 15.0583L25.749 15.0798L25.6072 15.1047L25.4504 15.1973L25.1015 15.347L24.6212 15.4396L24.3229 15.4931L24.0344 15.5074L23.8877 15.4966ZM23.0282 16.1024L22.9522 16.1879L22.9421 16.252L23.008 16.3055L23.0888 16.334L23.1899 16.3305L23.2405 16.3126L23.276 16.2308L23.2659 16.138L23.2405 16.0847L23.1697 16.0739H23.0888L23.0282 16.1024ZM24.0194 16.7259L23.9486 16.7295L23.8929 16.7723L23.8828 16.8435L23.9131 16.9007L23.9688 16.9218H24.065L24.1407 16.897L24.156 16.8435L24.1306 16.7794L24.095 16.7403L24.0194 16.7259ZM26.9727 17.036L27.4784 16.7831L27.7869 16.6475L27.974 16.5657H28.0399L28.05 16.6618L27.9235 16.733L27.8628 16.8793L27.706 17.0502L27.423 17.1463L27.1347 17.1929H26.8766L26.8312 17.1322L26.8968 17.0679L26.9727 17.036ZM28.677 17.1607L28.8439 17.011L29.0362 16.8828L29.2081 16.801L29.3346 16.7936L29.4204 16.8329V16.9434L29.375 17.0645L29.1827 17.1929L28.9551 17.2926L28.7226 17.3353L28.6111 17.3103L28.5961 17.2462L28.677 17.1607ZM28.7073 17.7877L28.7731 17.7059L28.93 17.656L29.2029 17.5632L29.5165 17.4279L29.6632 17.3532L29.8856 17.2782L30.0274 17.3032V17.4102L29.9717 17.5065L29.7744 17.6703L29.5015 17.7629L29.2283 17.8412L28.945 17.8449H28.7682L28.7073 17.7877ZM28.1612 14.3564L27.9994 14.3955L27.9639 14.4741L28.0298 14.5595L28.2068 14.5524L28.3535 14.5131L28.4595 14.4277L28.4142 14.3564L28.2724 14.3208L28.1612 14.3564ZM31.0134 13.7043L30.9227 13.6579L30.9883 13.5726L31.2413 13.5547L31.3779 13.5866L31.4844 13.6259L31.4888 13.69L31.3981 13.7185L31.2566 13.7256L31.12 13.7185L31.0134 13.7043ZM31.4276 14.1104L31.5751 14.107L31.6866 14.1249L31.7418 14.1497L31.7218 14.189L31.6407 14.2567L31.5298 14.2637L31.3981 14.2496L31.3221 14.2246L31.2667 14.1782L31.332 14.1389L31.4276 14.1104ZM31.3981 15.942L31.6664 15.8637L31.8986 15.7782L32.1418 15.682L32.3278 15.6356L32.4401 15.6142L32.5508 15.4966L32.4702 15.4431L32.3136 15.4502L32.1259 15.4789L31.9186 15.5359L31.7718 15.543L31.7519 15.4646L31.7718 15.3149L31.6866 15.2542H31.5642L31.4844 15.3255L31.4074 15.3969L31.2866 15.4895L31.2003 15.6427V15.7782L31.2413 15.8529L31.2314 15.9313L31.3068 15.9492L31.3981 15.942ZM31.2967 23.2789L31.4276 23.2717L31.5399 23.3358L31.544 23.3894L31.5087 23.4215L31.4074 23.4427L31.2768 23.4356L31.1902 23.3751L31.2112 23.3218L31.2967 23.2789ZM31.5087 23.0723H31.6607L31.762 22.9938L31.7519 22.9368L31.6505 22.8904H31.544L31.4634 22.9083L31.4276 22.9616V23.0402L31.5087 23.0723ZM31.6765 22.3988L31.7871 22.3845H31.8937L31.9593 22.4236L31.974 22.4842L31.9396 22.5343L31.8374 22.5697L31.732 22.5805L31.621 22.5626L31.5852 22.5093V22.4452L31.6765 22.3988ZM31.7921 22.1066L31.944 22.1102L32.0806 22.0815L32.1358 22.0211L32.0959 21.9462L31.9849 21.9071L31.8527 21.9212L31.732 21.9604L31.7065 22.0245L31.7117 22.0673L31.7921 22.1066ZM32.0959 21.3512L32.2524 21.319H32.3737L32.4292 21.3652L32.409 21.4473L32.3336 21.5185L32.2625 21.5828L32.1215 21.6041H31.9798L31.8584 21.5614L31.8483 21.4936L31.9339 21.4295L31.9992 21.376L32.0959 21.3512ZM32.2524 20.7881L32.409 20.7739L32.5508 20.7953L32.6114 20.8559V20.9163L32.5456 20.9912L32.4292 21.0055L32.3079 21.027L32.156 21.0234L32.0904 20.9699L32.1005 20.8915L32.1516 20.838L32.2524 20.7881ZM32.3948 20.5993H32.5456L32.6674 20.5708L32.824 20.5244L32.8442 20.4318L32.7887 20.3569L32.6568 20.325L32.5204 20.3285L32.4243 20.3569L32.3382 20.3891L32.2371 20.4532L32.2172 20.521L32.2581 20.5743L32.3336 20.5922L32.3948 20.5993ZM12.7669 29.6465L12.8985 29.6572L12.9338 29.7498L12.8428 29.8282L12.6909 29.8032L12.6152 29.6998L12.7669 29.6465ZM32.2882 19.9365L32.5308 19.8474L32.6464 19.8295L32.7887 19.8403L32.8442 19.8759V19.9152L32.7887 19.9793L32.6923 20.0362L32.5508 20.0721L32.3838 20.0824L32.2472 20.0684L32.2122 20.0112L32.2325 19.965L32.2882 19.9365ZM32.5057 19.6514L32.6822 19.5979L32.7529 19.541L32.7887 19.484V19.4305L32.7587 19.3985L32.6822 19.3948L32.5767 19.402L32.4702 19.4199L32.3789 19.459L32.3336 19.4982L32.3177 19.566L32.3382 19.6264L32.4191 19.6443L32.5057 19.6514ZM32.5456 19.1596L32.6975 19.1205L32.8089 19.067L32.8341 19.0208L32.8499 18.9425L32.824 18.8924L32.7529 18.8782L32.6464 18.8818L32.5204 18.8996L32.4344 18.9425L32.3737 18.985L32.3636 19.0562L32.3789 19.1134L32.4603 19.1454L32.5456 19.1596ZM32.5456 17.8876L32.6723 17.8839L32.748 17.9018L32.7688 17.948L32.7275 17.9944L32.6622 18.0443L32.5557 18.0622H32.4445L32.3737 18.016V17.9625L32.4401 17.9161L32.5456 17.8876ZM32.5557 18.6537L32.7133 18.6002L32.8341 18.5253L32.8442 18.415L32.8341 18.3473L32.7529 18.3151L32.6622 18.2974L32.5868 18.3009L32.5456 18.3367L32.5256 18.3864L32.5057 18.4507L32.4603 18.472H32.3737L32.3489 18.5076L32.359 18.5717L32.4243 18.6289L32.4904 18.6464L32.5557 18.6537ZM32.5767 17.5028L32.6874 17.4493L32.804 17.4529L32.8742 17.5134L32.8595 17.574L32.804 17.6273L32.7133 17.6524L32.627 17.6668L32.5508 17.6739L32.4502 17.6668L32.4243 17.6239L32.4502 17.5669L32.5103 17.5278L32.5767 17.5028ZM32.5969 17.2177L32.6874 17.1929L32.783 17.1322L32.7887 17.0751L32.7789 17.0146L32.7177 16.9896L32.6221 17.0004L32.5609 17.0254L32.4956 17.0751L32.4904 17.1357V17.1929L32.5357 17.2106L32.5969 17.2177ZM32.3789 16.6475L32.4401 16.6262L32.5204 16.6227L32.5868 16.6512L32.601 16.6939L32.5767 16.758L32.5103 16.7936L32.4502 16.8187L32.3691 16.8258L32.3035 16.7973L32.2882 16.7472L32.3177 16.7047L32.3789 16.6475Z" fill="white" stroke="white" stroke-width="0.5" stroke-miterlimit="2.613"/>
</svg>
