<svg width="30" height="22" viewBox="0 0 30 22" fill="none" xmlns="http://www.w3.org/2000/svg">
<path d="M27.7513 0H2.24482C1.00393 0 -0.00195312 1.12587 -0.00195312 2.5148V19.4851C-0.00195312 20.874 1.00393 21.9999 2.24482 21.9999H27.7513C28.9921 21.9999 29.998 20.8741 29.998 19.4851V2.5148C29.998 1.12587 28.9922 0 27.7513 0Z" fill="#F5F5F5"/>
<path d="M0.123047 1.69232H29.8758C29.5714 0.70745 28.7361 0 27.7527 0H2.24625C1.26281 0 0.427559 0.70745 0.123047 1.69232Z" fill="#FF4B55"/>
<path d="M29.998 6.76562H-0.00195312V8.45788H29.998V6.76562Z" fill="#FF4B55"/>
<path d="M29.998 3.38281H-0.00195312V5.07506H29.998V3.38281Z" fill="#FF4B55"/>
<path d="M-0.00195312 11.2696C-0.00195312 11.5893 0.229668 11.8486 0.515312 11.8486H29.998V10.1562H-0.00195312V11.2696Z" fill="#FF4B55"/>
<path d="M29.998 16.9219H-0.00195312V18.6142H29.998V16.9219Z" fill="#FF4B55"/>
<path d="M29.8759 20.3125H0.123047C0.427559 21.2974 1.26287 22.0048 2.24625 22.0048H27.7527C28.7361 22.0048 29.5714 21.2974 29.8759 20.3125Z" fill="#FF4B55"/>
<path d="M29.998 13.5391H-0.00195312V15.2313H29.998V13.5391Z" fill="#FF4B55"/>
<path d="M0.515312 11.8462H13.4464C13.732 11.8462 13.9636 11.5869 13.9636 11.2672V0.578971C13.9636 0.259186 13.732 0 13.4464 0H2.24482C1.00393 6.55835e-05 -0.00195312 1.12594 -0.00195312 2.51487V11.2672C-0.00195312 11.587 0.229668 11.8462 0.515312 11.8462Z" fill="#41479B"/>
<path d="M1.45135 1.3342L1.56584 1.71852L1.92777 1.7216C1.97465 1.72206 1.99404 1.78896 1.95637 1.82011L1.66522 2.06073L1.77444 2.44696C1.78861 2.49693 1.7377 2.53838 1.69955 2.50782L1.40512 2.27231L1.11069 2.50788C1.07254 2.53844 1.02174 2.497 1.0358 2.44702L1.14502 2.0608L0.853869 1.82017C0.816193 1.78896 0.835587 1.72206 0.882462 1.72167L1.2444 1.71859L1.35889 1.33427C1.37365 1.28442 1.43647 1.28442 1.45135 1.3342Z" fill="#F5F5F5"/>
<path d="M1.45135 3.34978L1.56584 3.7341L1.92777 3.73718C1.97465 3.73764 1.99404 3.80447 1.95637 3.83568L1.66522 4.07638L1.77444 4.4626C1.78861 4.51257 1.7377 4.55402 1.69955 4.52346L1.40512 4.28795L1.11069 4.52352C1.07254 4.55402 1.02174 4.51264 1.0358 4.46266L1.14502 4.07644L0.853869 3.83575C0.816193 3.80453 0.835587 3.7377 0.882462 3.73724L1.2444 3.73416L1.35889 3.34984C1.37365 3.30006 1.43647 3.30006 1.45135 3.34978Z" fill="#F5F5F5"/>
<path d="M1.45135 5.34983L1.56584 5.73414L1.92777 5.73723C1.97465 5.73769 1.99404 5.80452 1.95637 5.83573L1.66522 6.07643L1.77444 6.46265C1.78861 6.51262 1.7377 6.55407 1.69955 6.52351L1.40512 6.288L1.11069 6.52357C1.07254 6.55407 1.02174 6.51275 1.0358 6.46271L1.14502 6.07649L0.853869 5.8358C0.816193 5.80458 0.835587 5.73775 0.882462 5.73729L1.2444 5.73421L1.35889 5.34989C1.37365 5.30005 1.43647 5.30005 1.45135 5.34983Z" fill="#F5F5F5"/>
<path d="M1.45135 7.36545L1.56584 7.74977L1.92777 7.75285C1.97465 7.75331 1.99404 7.82021 1.95637 7.85136L1.66522 8.09205L1.77444 8.47827C1.78861 8.52825 1.7377 8.56969 1.69955 8.53913L1.40512 8.30362L1.11069 8.5392C1.07254 8.5697 1.02174 8.52831 1.0358 8.47834L1.14502 8.09212L0.853869 7.85142C0.816193 7.82034 0.835587 7.75338 0.882462 7.75292L1.2444 7.74983L1.35889 7.36552C1.37365 7.31567 1.43647 7.31567 1.45135 7.36545Z" fill="#F5F5F5"/>
<path d="M1.45135 9.38103L1.56584 9.76535L1.92777 9.76843C1.97465 9.76889 1.99404 9.83572 1.95637 9.86693L1.66522 10.1076L1.77444 10.4938C1.78861 10.5438 1.7377 10.5853 1.69955 10.5547L1.40512 10.3192L1.11069 10.5548C1.07254 10.5853 1.02174 10.5439 1.0358 10.4939L1.14502 10.1077L0.853869 9.867C0.816193 9.83578 0.835587 9.76895 0.882462 9.76849L1.2444 9.76541L1.35889 9.38109C1.37365 9.33131 1.43647 9.33131 1.45135 9.38103Z" fill="#F5F5F5"/>
<path d="M2.84588 2.31853L2.96037 2.70285L3.32231 2.70594C3.36918 2.7064 3.38858 2.77329 3.3509 2.80444L3.05975 3.04513L3.16897 3.43136C3.18315 3.48133 3.13223 3.52278 3.09408 3.49222L2.79965 3.25664L2.50522 3.49222C2.46707 3.52271 2.41627 3.48133 2.43033 3.43136L2.53955 3.04513L2.2484 2.80444C2.21072 2.77323 2.23012 2.7064 2.27699 2.70594L2.63893 2.70285L2.75342 2.31853C2.76819 2.26882 2.83106 2.26882 2.84588 2.31853Z" fill="#F5F5F5"/>
<path d="M2.84588 4.33421L2.96037 4.71853L3.32231 4.72161C3.36918 4.72207 3.38858 4.78897 3.3509 4.82012L3.05975 5.06081L3.16897 5.44703C3.18315 5.497 3.13223 5.53845 3.09408 5.50789L2.79965 5.27232L2.50522 5.50789C2.46707 5.53839 2.41627 5.49707 2.43033 5.44703L2.53955 5.06081L2.2484 4.82012C2.21072 4.78903 2.23012 4.72207 2.27699 4.72161L2.63893 4.71853L2.75342 4.33421C2.76819 4.28443 2.83106 4.28443 2.84588 4.33421Z" fill="#F5F5F5"/>
<path d="M2.84588 6.34202L2.96037 6.72634L3.32231 6.72942C3.36918 6.72988 3.38858 6.79671 3.3509 6.82793L3.05975 7.06862L3.16897 7.45484C3.18315 7.50482 3.13223 7.54627 3.09408 7.5157L2.79965 7.28013L2.50522 7.5157C2.46707 7.5462 2.41627 7.50482 2.43033 7.45484L2.53955 7.06862L2.2484 6.82793C2.21072 6.79671 2.23012 6.72988 2.27699 6.72942L2.63893 6.72634L2.75342 6.34202C2.76819 6.29224 2.83106 6.29224 2.84588 6.34202Z" fill="#F5F5F5"/>
<path d="M2.84588 8.34978L2.96037 8.7341L3.32231 8.73719C3.36918 8.73765 3.38858 8.80447 3.3509 8.83569L3.05975 9.07638L3.16897 9.4626C3.18315 9.51258 3.13223 9.55403 3.09408 9.52347L2.79965 9.28789L2.50522 9.52347C2.46707 9.55403 2.41627 9.51258 2.43033 9.4626L2.53955 9.07638L2.2484 8.83569C2.21072 8.80447 2.23012 8.73765 2.27699 8.73719L2.63893 8.7341L2.75342 8.34978C2.76819 8.30007 2.83106 8.30007 2.84588 8.34978Z" fill="#F5F5F5"/>
<path d="M4.24041 1.33421L4.3549 1.71853L4.71684 1.72161C4.76371 1.72207 4.78311 1.78896 4.74543 1.82012L4.45428 2.06074L4.5635 2.44696C4.57768 2.49694 4.52676 2.53839 4.48861 2.50783L4.19418 2.27225L3.89975 2.50783C3.8616 2.53839 3.8108 2.49694 3.82486 2.44696L3.93408 2.06074L3.64293 1.82012C3.60526 1.7889 3.62465 1.722 3.67152 1.72161L4.03346 1.71853L4.14795 1.33421C4.16272 1.28443 4.22559 1.28443 4.24041 1.33421Z" fill="#F5F5F5"/>
<path d="M4.24041 3.34978L4.3549 3.7341L4.71684 3.73719C4.76371 3.73765 4.78311 3.80448 4.74543 3.83569L4.45428 4.07638L4.5635 4.46261C4.57768 4.51258 4.52676 4.55403 4.48861 4.52347L4.19418 4.28789L3.89975 4.52347C3.8616 4.55396 3.8108 4.51258 3.82486 4.46261L3.93408 4.07638L3.64293 3.83569C3.60526 3.80448 3.62465 3.73765 3.67152 3.73719L4.03346 3.7341L4.14795 3.34978C4.16272 3.30007 4.22559 3.30007 4.24041 3.34978Z" fill="#F5F5F5"/>
<path d="M4.24041 5.34983L4.3549 5.73415L4.71684 5.73724C4.76371 5.7377 4.78311 5.80452 4.74543 5.83574L4.45428 6.07643L4.5635 6.46265C4.57768 6.51263 4.52676 6.55408 4.48861 6.52352L4.19418 6.28794L3.89975 6.52352C3.8616 6.55401 3.8108 6.5127 3.82486 6.46265L3.93408 6.07643L3.64293 5.83574C3.60526 5.80452 3.62465 5.7377 3.67152 5.73724L4.03346 5.73415L4.14795 5.34983C4.16272 5.30006 4.22559 5.30006 4.24041 5.34983Z" fill="#F5F5F5"/>
<path d="M4.24041 7.36546L4.3549 7.74978L4.71684 7.75286C4.76371 7.75332 4.78311 7.82021 4.74543 7.85137L4.45428 8.09206L4.5635 8.47828C4.57768 8.52825 4.52676 8.5697 4.48861 8.53914L4.19418 8.30357L3.89975 8.53914C3.8616 8.56964 3.8108 8.52825 3.82486 8.47828L3.93408 8.09206L3.64293 7.85137C3.60526 7.82028 3.62465 7.75332 3.67152 7.75286L4.03346 7.74978L4.14795 7.36546C4.16272 7.31568 4.22559 7.31568 4.24041 7.36546Z" fill="#F5F5F5"/>
<path d="M4.24041 9.38103L4.3549 9.76535L4.71684 9.76844C4.76371 9.7689 4.78311 9.83572 4.74543 9.86694L4.45428 10.1076L4.5635 10.4939C4.57768 10.5438 4.52676 10.5853 4.48861 10.5547L4.19418 10.3191L3.89975 10.5547C3.8616 10.5852 3.8108 10.5438 3.82486 10.4939L3.93408 10.1076L3.64293 9.86694C3.60526 9.83572 3.62465 9.7689 3.67152 9.76844L4.03346 9.76535L4.14795 9.38103C4.16272 9.33132 4.22559 9.33132 4.24041 9.38103Z" fill="#F5F5F5"/>
<path d="M5.63104 2.31853L5.74553 2.70285L6.10746 2.70594C6.15434 2.7064 6.17373 2.77329 6.13606 2.80444L5.8449 3.04513L5.95412 3.43136C5.9683 3.48133 5.91738 3.52278 5.87924 3.49222L5.58481 3.25664L5.29037 3.49222C5.25223 3.52271 5.20143 3.48133 5.21549 3.43136L5.32471 3.04513L5.03356 2.80444C4.99588 2.77323 5.01527 2.7064 5.06215 2.70594L5.42408 2.70285L5.53858 2.31853C5.55328 2.26882 5.61621 2.26882 5.63104 2.31853Z" fill="#F5F5F5"/>
<path d="M5.63104 4.33421L5.74553 4.71853L6.10746 4.72161C6.15434 4.72207 6.17373 4.78897 6.13606 4.82012L5.8449 5.06081L5.95412 5.44703C5.9683 5.497 5.91738 5.53845 5.87924 5.50789L5.58481 5.27232L5.29037 5.50789C5.25223 5.53839 5.20143 5.49707 5.21549 5.44703L5.32471 5.06081L5.03356 4.82012C4.99588 4.78903 5.01527 4.72207 5.06215 4.72161L5.42408 4.71853L5.53858 4.33421C5.55328 4.28443 5.61621 4.28443 5.63104 4.33421Z" fill="#F5F5F5"/>
<path d="M5.63104 6.34202L5.74553 6.72634L6.10746 6.72942C6.15434 6.72988 6.17373 6.79671 6.13606 6.82793L5.8449 7.06862L5.95412 7.45484C5.9683 7.50482 5.91738 7.54627 5.87924 7.5157L5.58481 7.28013L5.29037 7.5157C5.25223 7.5462 5.20143 7.50482 5.21549 7.45484L5.32471 7.06862L5.03356 6.82793C4.99588 6.79671 5.01527 6.72988 5.06215 6.72942L5.42408 6.72634L5.53858 6.34202C5.55328 6.29224 5.61621 6.29224 5.63104 6.34202Z" fill="#F5F5F5"/>
<path d="M5.63104 8.34978L5.74553 8.7341L6.10746 8.73719C6.15434 8.73765 6.17373 8.80447 6.13606 8.83569L5.8449 9.07638L5.95412 9.4626C5.9683 9.51258 5.91738 9.55403 5.87924 9.52347L5.58481 9.28789L5.29037 9.52347C5.25223 9.55403 5.20143 9.51258 5.21549 9.4626L5.32471 9.07638L5.03356 8.83569C4.99588 8.80447 5.01527 8.73765 5.06215 8.73719L5.42408 8.7341L5.53858 8.34978C5.55328 8.30007 5.61621 8.30007 5.63104 8.34978Z" fill="#F5F5F5"/>
<path d="M7.02953 1.3342L7.14403 1.71852L7.50596 1.7216C7.55283 1.72206 7.57223 1.78896 7.53455 1.82011L7.2434 2.06073L7.35262 2.44696C7.3668 2.49693 7.31588 2.53838 7.27774 2.50782L6.98324 2.27231L6.68881 2.50788C6.65067 2.53844 6.59986 2.497 6.61393 2.44702L6.72315 2.0608L6.43199 1.82017C6.39432 1.78896 6.41371 1.72206 6.46059 1.72167L6.82252 1.71859L6.93701 1.33427C6.95184 1.28442 7.01471 1.28442 7.02953 1.3342Z" fill="#F5F5F5"/>
<path d="M7.02953 3.34978L7.14403 3.7341L7.50596 3.73719C7.55283 3.73765 7.57223 3.80448 7.53455 3.83569L7.2434 4.07638L7.35262 4.46261C7.3668 4.51258 7.31588 4.55403 7.27774 4.52347L6.98324 4.28789L6.68881 4.52347C6.65067 4.55396 6.59986 4.51258 6.61393 4.46261L6.72315 4.07638L6.43199 3.83569C6.39432 3.80448 6.41371 3.73765 6.46059 3.73719L6.82252 3.7341L6.93701 3.34978C6.95184 3.30007 7.01471 3.30007 7.02953 3.34978Z" fill="#F5F5F5"/>
<path d="M7.02953 5.34984L7.14403 5.73416L7.50596 5.73724C7.55283 5.7377 7.57223 5.80453 7.53455 5.83575L7.2434 6.07644L7.35262 6.46266C7.3668 6.51264 7.31588 6.55409 7.27774 6.52353L6.98324 6.28788L6.68881 6.52346C6.65067 6.55396 6.59986 6.51257 6.61393 6.4626L6.72315 6.07638L6.43199 5.83568C6.39432 5.80447 6.41371 5.73764 6.46059 5.73718L6.82252 5.7341L6.93701 5.34978C6.95184 5.30006 7.01471 5.30006 7.02953 5.34984Z" fill="#F5F5F5"/>
<path d="M7.02953 7.36546L7.14403 7.74978L7.50596 7.75286C7.55283 7.75332 7.57223 7.82021 7.53455 7.85137L7.2434 8.09206L7.35262 8.47828C7.3668 8.52825 7.31588 8.5697 7.27774 8.53914L6.98324 8.30357L6.68881 8.53914C6.65067 8.56964 6.59986 8.52825 6.61393 8.47828L6.72315 8.09206L6.43199 7.85137C6.39432 7.82028 6.41371 7.75332 6.46059 7.75286L6.82252 7.74978L6.93701 7.36546C6.95184 7.31568 7.01471 7.31568 7.02953 7.36546Z" fill="#F5F5F5"/>
<path d="M7.02953 9.38103L7.14403 9.76535L7.50596 9.76844C7.55283 9.7689 7.57223 9.83572 7.53455 9.86694L7.2434 10.1076L7.35262 10.4939C7.3668 10.5438 7.31588 10.5853 7.27774 10.5547L6.98324 10.3191L6.68881 10.5547C6.65067 10.5852 6.59986 10.5438 6.61393 10.4939L6.72315 10.1076L6.43199 9.86694C6.39432 9.83572 6.41371 9.7689 6.46059 9.76844L6.82252 9.76535L6.93701 9.38103C6.95184 9.33132 7.01471 9.33132 7.02953 9.38103Z" fill="#F5F5F5"/>
<path d="M8.4201 2.31853L8.53459 2.70285L8.89653 2.70594C8.9434 2.7064 8.96279 2.77329 8.92512 2.80444L8.63397 3.04513L8.74318 3.43136C8.75736 3.48133 8.70645 3.52278 8.6683 3.49222L8.37387 3.25664L8.07943 3.49222C8.04129 3.52271 7.99049 3.48133 8.00455 3.43136L8.11377 3.04513L7.82262 2.80444C7.78494 2.77323 7.80434 2.7064 7.85121 2.70594L8.21315 2.70285L8.32764 2.31853C8.34246 2.26882 8.40528 2.26882 8.4201 2.31853Z" fill="#F5F5F5"/>
<path d="M8.42401 4.33421L8.5385 4.71853L8.90043 4.72161C8.94731 4.72207 8.9667 4.78897 8.92902 4.82012L8.63787 5.06081L8.74709 5.44703C8.76127 5.497 8.71035 5.53845 8.67221 5.50789L8.37778 5.27232L8.08334 5.50789C8.0452 5.53839 7.9944 5.49707 8.00846 5.44703L8.11768 5.06081L7.82652 4.82012C7.78885 4.78903 7.80824 4.72207 7.85512 4.72161L8.21705 4.71853L8.33154 4.33421C8.34637 4.28443 8.40918 4.28443 8.42401 4.33421Z" fill="#F5F5F5"/>
<path d="M8.4201 6.34202L8.53459 6.72634L8.89653 6.72942C8.9434 6.72988 8.96279 6.79671 8.92512 6.82793L8.63397 7.06862L8.74318 7.45484C8.75736 7.50482 8.70645 7.54627 8.6683 7.5157L8.37387 7.28013L8.07943 7.5157C8.04129 7.5462 7.99049 7.50482 8.00455 7.45484L8.11377 7.06862L7.82262 6.82793C7.78494 6.79671 7.80434 6.72988 7.85121 6.72942L8.21315 6.72634L8.32764 6.34202C8.34246 6.29224 8.40528 6.29224 8.4201 6.34202Z" fill="#F5F5F5"/>
<path d="M8.4201 8.34978L8.53459 8.7341L8.89653 8.73719C8.9434 8.73765 8.96279 8.80447 8.92512 8.83569L8.63397 9.07638L8.74318 9.4626C8.75736 9.51258 8.70645 9.55403 8.6683 9.52347L8.37387 9.28789L8.07943 9.52347C8.04129 9.55403 7.99049 9.51258 8.00455 9.4626L8.11377 9.07638L7.82262 8.83569C7.78494 8.80447 7.80434 8.73765 7.85121 8.73719L8.21315 8.7341L8.32764 8.34978C8.34246 8.30007 8.40528 8.30007 8.4201 8.34978Z" fill="#F5F5F5"/>
<path d="M9.81854 1.33421L9.93303 1.71853L10.295 1.72161C10.3418 1.72207 10.3612 1.78896 10.3236 1.82012L10.0324 2.06074L10.1416 2.44696C10.1558 2.49694 10.1049 2.53839 10.0667 2.50783L9.77231 2.27225L9.47787 2.50783C9.43973 2.53839 9.38893 2.49694 9.40299 2.44696L9.51221 2.06074L9.22106 1.82012C9.18338 1.7889 9.20277 1.722 9.24965 1.72161L9.61158 1.71853L9.72608 1.33421C9.74078 1.28443 9.80371 1.28443 9.81854 1.33421Z" fill="#F5F5F5"/>
<path d="M9.81854 3.34978L9.93303 3.7341L10.295 3.73719C10.3418 3.73765 10.3612 3.80448 10.3236 3.83569L10.0324 4.07638L10.1416 4.46261C10.1558 4.51258 10.1049 4.55403 10.0667 4.52347L9.77231 4.28789L9.47787 4.52347C9.43973 4.55396 9.38893 4.51258 9.40299 4.46261L9.51221 4.07638L9.22106 3.83569C9.18338 3.80448 9.20277 3.73765 9.24965 3.73719L9.61158 3.7341L9.72608 3.34978C9.74078 3.30007 9.80371 3.30007 9.81854 3.34978Z" fill="#F5F5F5"/>
<path d="M9.81854 5.34983L9.93303 5.73415L10.295 5.73724C10.3418 5.7377 10.3612 5.80452 10.3236 5.83574L10.0324 6.07643L10.1416 6.46265C10.1558 6.51263 10.1049 6.55408 10.0667 6.52352L9.77231 6.28794L9.47787 6.52352C9.43973 6.55401 9.38893 6.5127 9.40299 6.46265L9.51221 6.07643L9.22106 5.83574C9.18338 5.80452 9.20277 5.7377 9.24965 5.73724L9.61158 5.73415L9.72608 5.34983C9.74078 5.30006 9.80371 5.30006 9.81854 5.34983Z" fill="#F5F5F5"/>
<path d="M9.81854 7.36546L9.93303 7.74978L10.295 7.75286C10.3418 7.75332 10.3612 7.82021 10.3236 7.85137L10.0324 8.09206L10.1416 8.47828C10.1558 8.52825 10.1049 8.5697 10.0667 8.53914L9.77231 8.30357L9.47787 8.53914C9.43973 8.56964 9.38893 8.52825 9.40299 8.47828L9.51221 8.09206L9.22106 7.85137C9.18338 7.82028 9.20277 7.75332 9.24965 7.75286L9.61158 7.74978L9.72608 7.36546C9.74078 7.31568 9.80371 7.31568 9.81854 7.36546Z" fill="#F5F5F5"/>
<path d="M9.81854 9.38103L9.93303 9.76535L10.295 9.76844C10.3418 9.7689 10.3612 9.83572 10.3236 9.86694L10.0324 10.1076L10.1416 10.4939C10.1558 10.5438 10.1049 10.5853 10.0667 10.5547L9.77231 10.3191L9.47787 10.5547C9.43973 10.5852 9.38893 10.5438 9.40299 10.4939L9.51221 10.1076L9.22106 9.86694C9.18338 9.83572 9.20277 9.7689 9.24965 9.76844L9.61158 9.76535L9.72608 9.38103C9.74078 9.33132 9.80371 9.33132 9.81854 9.38103Z" fill="#F5F5F5"/>
<path d="M11.2092 2.31853L11.3237 2.70285L11.6856 2.70594C11.7325 2.7064 11.7519 2.77329 11.7142 2.80444L11.423 3.04513L11.5322 3.43136C11.5464 3.48133 11.4955 3.52278 11.4574 3.49222L11.1629 3.25664L10.8685 3.49222C10.8304 3.52271 10.7796 3.48133 10.7936 3.43136L10.9028 3.04513L10.6117 2.80444C10.574 2.77323 10.5934 2.7064 10.6403 2.70594L11.0022 2.70285L11.1167 2.31853C11.1315 2.26882 11.1943 2.26882 11.2092 2.31853Z" fill="#F5F5F5"/>
<path d="M11.2092 4.33421L11.3237 4.71853L11.6856 4.72161C11.7325 4.72207 11.7519 4.78897 11.7142 4.82012L11.423 5.06081L11.5322 5.44703C11.5464 5.497 11.4955 5.53845 11.4574 5.50789L11.1629 5.27232L10.8685 5.50789C10.8304 5.53839 10.7796 5.49707 10.7936 5.44703L10.9028 5.06081L10.6117 4.82012C10.574 4.78903 10.5934 4.72207 10.6403 4.72161L11.0022 4.71853L11.1167 4.33421C11.1315 4.28443 11.1943 4.28443 11.2092 4.33421Z" fill="#F5F5F5"/>
<path d="M11.2092 6.34202L11.3237 6.72634L11.6856 6.72942C11.7325 6.72988 11.7519 6.79671 11.7142 6.82793L11.423 7.06862L11.5322 7.45484C11.5464 7.50482 11.4955 7.54627 11.4574 7.5157L11.1629 7.28013L10.8685 7.5157C10.8304 7.5462 10.7796 7.50482 10.7936 7.45484L10.9028 7.06862L10.6117 6.82793C10.574 6.79671 10.5934 6.72988 10.6403 6.72942L11.0022 6.72634L11.1167 6.34202C11.1315 6.29224 11.1943 6.29224 11.2092 6.34202Z" fill="#F5F5F5"/>
<path d="M11.2092 8.34978L11.3237 8.7341L11.6856 8.73719C11.7325 8.73765 11.7519 8.80447 11.7142 8.83569L11.423 9.07638L11.5322 9.4626C11.5464 9.51258 11.4955 9.55403 11.4574 9.52347L11.1629 9.28789L10.8685 9.52347C10.8304 9.55403 10.7796 9.51258 10.7936 9.4626L10.9028 9.07638L10.6117 8.83569C10.574 8.80447 10.5934 8.73765 10.6403 8.73719L11.0022 8.7341L11.1167 8.34978C11.1315 8.30007 11.1943 8.30007 11.2092 8.34978Z" fill="#F5F5F5"/>
<path d="M12.6037 1.33421L12.7182 1.71853L13.0801 1.72161C13.127 1.72207 13.1464 1.78896 13.1087 1.82012L12.8176 2.06074L12.9268 2.44696C12.941 2.49694 12.89 2.53839 12.8519 2.50783L12.5575 2.27225L12.263 2.50783C12.2249 2.53839 12.1741 2.49694 12.1881 2.44696L12.2974 2.06074L12.0062 1.82012C11.9685 1.7889 11.9879 1.722 12.0348 1.72161L12.3967 1.71853L12.5112 1.33421C12.526 1.28443 12.5888 1.28443 12.6037 1.33421Z" fill="#F5F5F5"/>
<path d="M12.6037 3.34978L12.7182 3.7341L13.0801 3.73719C13.127 3.73765 13.1464 3.80448 13.1087 3.83569L12.8176 4.07638L12.9268 4.46261C12.941 4.51258 12.89 4.55403 12.8519 4.52347L12.5575 4.28789L12.263 4.52347C12.2249 4.55396 12.1741 4.51258 12.1881 4.46261L12.2974 4.07638L12.0062 3.83569C11.9685 3.80448 11.9879 3.73765 12.0348 3.73719L12.3967 3.7341L12.5112 3.34978C12.526 3.30007 12.5888 3.30007 12.6037 3.34978Z" fill="#F5F5F5"/>
<path d="M12.6037 5.34983L12.7182 5.73415L13.0801 5.73724C13.127 5.7377 13.1464 5.80452 13.1087 5.83574L12.8176 6.07643L12.9268 6.46265C12.941 6.51263 12.89 6.55408 12.8519 6.52352L12.5575 6.28794L12.263 6.52352C12.2249 6.55401 12.1741 6.5127 12.1881 6.46265L12.2974 6.07643L12.0062 5.83574C11.9685 5.80452 11.9879 5.7377 12.0348 5.73724L12.3967 5.73415L12.5112 5.34983C12.526 5.30006 12.5888 5.30006 12.6037 5.34983Z" fill="#F5F5F5"/>
<path d="M12.6037 7.36546L12.7182 7.74978L13.0801 7.75286C13.127 7.75332 13.1464 7.82021 13.1087 7.85137L12.8176 8.09206L12.9268 8.47828C12.941 8.52825 12.89 8.5697 12.8519 8.53914L12.5575 8.30357L12.263 8.53914C12.2249 8.56964 12.1741 8.52825 12.1881 8.47828L12.2974 8.09206L12.0062 7.85137C11.9685 7.82028 11.9879 7.75332 12.0348 7.75286L12.3967 7.74978L12.5112 7.36546C12.526 7.31568 12.5888 7.31568 12.6037 7.36546Z" fill="#F5F5F5"/>
<path d="M12.6037 9.38103L12.7182 9.76535L13.0801 9.76844C13.127 9.7689 13.1464 9.83572 13.1087 9.86694L12.8176 10.1076L12.9268 10.4939C12.941 10.5438 12.89 10.5853 12.8519 10.5547L12.5575 10.3191L12.263 10.5547C12.2249 10.5852 12.1741 10.5438 12.1881 10.4939L12.2974 10.1076L12.0062 9.86694C11.9685 9.83572 11.9879 9.7689 12.0348 9.76844L12.3967 9.76535L12.5112 9.38103C12.526 9.33132 12.5888 9.33132 12.6037 9.38103Z" fill="#F5F5F5"/>
</svg>
