<svg width="60" height="60" viewBox="0 0 60 60" fill="none" xmlns="http://www.w3.org/2000/svg">
<circle cx="30" cy="30" r="30" fill="black"/>
<path d="M29.7682 12.0001C27.6327 12.013 25.5 12.1357 23.3811 12.3676L22.9131 12.4231L22.3315 12.4921C22.2059 12.5056 22.0218 12.5311 21.9255 12.5491C21.8079 12.57 21.6897 12.588 21.571 12.6031C21.4186 12.6223 21.2666 12.6438 21.115 12.6676L20.6591 12.7396C20.327 12.7906 19.3462 12.9646 18.8507 13.0621C17.0199 13.4191 14.9878 13.9531 14.1533 14.2981C13.5631 14.5426 12.825 15.0571 12.5531 15.4126C12.3037 15.7696 12.136 16.1654 12.0593 16.5781C12.0094 16.8151 12.0042 16.9231 12.0008 17.8261C11.9956 18.9181 12.0162 19.6606 12.0765 20.6236C12.3621 25.1521 13.274 28.9336 14.9775 32.6236C16.1168 35.1925 17.6414 37.6186 19.5114 39.8386C21.232 41.8831 23.1592 43.6966 25.353 45.3436C26.6762 46.3336 28.3418 47.4511 28.9251 47.7361C29.5892 48.0616 30.336 48.0871 30.9726 47.8066C31.4888 47.5771 33.3506 46.3456 34.6084 45.4006C36.5677 43.9141 38.3644 42.272 39.9751 40.4956C40.8526 39.5281 42.6266 37.1146 43.3768 35.8681C46.1677 31.2331 47.7627 25.5436 47.9383 19.6501C47.9899 18.6871 48.0157 17.8141 47.9899 17.3566C47.9838 17.2424 47.974 17.1283 47.9606 17.0146L47.9623 16.4191L47.6784 15.9046C47.5211 15.603 47.2972 15.3313 47.0194 15.1051C46.6822 14.7976 46.3793 14.6236 45.6722 14.3266C43.9567 13.6066 41.6493 13.0396 38.8618 12.6496C37.9757 12.5176 37.0851 12.4096 36.1914 12.3256L35.4962 12.2536C35.2617 12.2296 35.0264 12.2111 34.7908 12.1981C33.6524 12.1144 32.5118 12.0544 31.3701 12.0181C30.8363 12.0025 30.3022 11.997 29.7682 12.0016V12.0001ZM30.0555 13.2451C35.8025 13.2346 40.5997 13.8991 44.5073 15.2431C45.9526 15.7381 46.2107 15.8926 46.5032 16.4311C46.7235 16.8361 46.7269 16.8961 46.665 18.9676C46.326 30.3526 41.8472 38.7961 32.7053 45.2791C31.5972 46.0666 30.441 46.7836 30.1519 46.8631C30.0091 46.9021 29.7475 46.8136 29.3208 46.5826C28.4743 46.1251 26.3647 44.6281 24.9504 43.4806C22.6241 41.5981 20.2926 39.0751 18.7044 36.7216C15.3147 31.7056 13.5545 25.8556 13.3463 18.9226C13.2861 16.8976 13.2912 16.8346 13.5115 16.4296C13.804 15.8941 14.0655 15.7366 15.4558 15.2641C19.2929 13.9546 23.345 13.3501 28.8941 13.2556C29.2864 13.2496 29.6736 13.2451 30.0555 13.2451ZM28.4364 14.3071L28.359 14.3116C28.0148 14.3476 27.5881 14.6206 27.3834 14.9446C26.9136 15.6871 27.0048 17.3326 27.5486 17.9056C27.7602 18.1306 27.872 18.1696 28.2729 18.1696C28.5396 18.1696 28.8476 18.1096 28.9732 18.0301C29.0989 17.9521 29.3002 17.7196 29.4206 17.5126C29.7372 16.9726 29.7441 15.6151 29.4327 15.0106C29.2331 14.6251 28.8597 14.3461 28.507 14.3116L28.4691 14.3086H28.4347L28.4364 14.3071ZM30.3188 14.3971L30.2895 16.2466C30.2771 16.8385 30.2713 17.4305 30.2723 18.0226C30.2806 18.0534 30.2922 18.0836 30.3068 18.1126C30.3498 18.1201 30.4599 18.1261 30.6044 18.1261H30.9176V17.3326C30.9176 16.5736 30.9262 16.5421 31.1344 16.5691C31.3065 16.5916 31.4131 16.7581 31.6626 17.3836L31.9758 18.1696H32.7329L32.3991 17.3236L32.067 16.4761L32.3388 16.2496C32.6709 15.9706 32.7742 15.5656 32.6314 15.0991C32.4748 14.5786 32.0773 14.3986 31.0983 14.3971H30.3188ZM34.4071 14.4871C33.5381 14.4871 33.1458 15.0616 33.151 16.3291C33.151 17.1661 33.2955 17.6941 33.6052 17.9986C33.9631 18.3481 34.7409 18.4096 35.2313 18.1246C35.4962 17.9716 35.6649 17.5006 35.67 16.9126C35.67 16.7566 35.6631 16.6336 35.639 16.5466C35.5823 16.4056 35.4154 16.3876 34.9387 16.3471L34.5344 16.3126C34.4638 16.3486 34.4587 16.4326 34.4587 16.6186V16.6786L34.4604 16.7056C34.4707 16.8826 34.5206 16.9126 34.7116 16.9126C34.9147 16.9126 34.9628 16.9576 34.9628 17.1436C34.9628 17.6761 34.4811 17.9116 34.1197 17.5576C33.6242 17.0716 33.736 15.2176 34.2694 15.0676C34.4931 15.0046 34.863 15.2401 34.863 15.4441C34.863 15.5221 34.9869 15.5641 35.2158 15.5641C35.6184 15.5641 35.6631 15.4456 35.4188 15.0271C35.3333 14.858 35.1906 14.7157 35.0098 14.6192C34.829 14.5227 34.6187 14.4766 34.4071 14.4871ZM25.4614 14.5441C25.2735 14.5395 25.0855 14.5466 24.8988 14.5651L24.2914 14.6221L24.2638 16.4956L24.2363 18.3691L24.9727 18.3061C25.3771 18.2701 25.8159 18.1951 25.9518 18.1396C26.3665 17.9626 26.6022 17.5906 26.6108 17.0971C26.616 16.7521 26.5678 16.6036 26.3992 16.4536C26.1824 16.2616 26.1824 16.2586 26.3733 15.9796C26.487 15.8245 26.5508 15.6457 26.558 15.4618C26.5653 15.2778 26.5158 15.0956 26.4146 14.9341C26.2718 14.6896 25.9621 14.5606 25.4614 14.5441ZM36.2791 14.6551V18.4201L36.6319 18.4561L36.9863 18.4936V17.6581C36.9863 16.7326 36.9536 16.7671 37.721 16.8796L38.0996 16.9366V17.7706C38.0996 18.4906 38.1237 18.6121 38.2768 18.6481C38.7242 18.7516 38.7121 18.7981 38.6829 16.8451L38.6553 14.9806L38.3783 14.9521L38.0996 14.9236V16.3756L37.6694 16.3216C36.9639 16.2346 36.9863 16.2616 36.9863 15.4786C36.9863 14.9611 36.9519 14.7556 36.8607 14.7556C36.7407 14.7475 36.622 14.7289 36.5063 14.7001L36.3411 14.6596L36.2791 14.6551ZM23.5326 14.7031L23.1884 14.7391C22.8495 14.7736 22.8374 14.7901 22.5742 15.5506C22.4279 15.9781 22.2472 16.4896 22.175 16.6876L22.0425 17.0476L21.7138 16.1041C21.5332 15.5851 21.3491 15.1261 21.3043 15.0841C21.2613 15.0421 21.0841 15.0346 20.912 15.0691L20.5988 15.1291V16.9651C20.5988 18.7126 20.6075 18.7996 20.7933 18.7996C20.9042 18.799 21.0145 18.7839 21.1202 18.7546C21.22 18.7201 21.2475 18.5446 21.2234 18.0991C21.2053 17.7778 21.2053 17.4559 21.2234 17.1346C21.2544 16.8046 21.2854 16.8526 21.6502 17.8036L22.0442 18.8311L22.409 17.6791L22.7738 16.5286L22.7892 17.0686C22.8153 17.1365 22.8171 17.2097 22.7944 17.2786L22.803 17.5381C22.8271 18.4051 22.8546 18.5386 22.9871 18.4936C23.1002 18.4599 23.2186 18.4417 23.3381 18.4396C23.524 18.4396 23.5326 18.3526 23.5326 16.5706V14.7031ZM30.9176 14.9131L31.3443 14.9626C31.95 15.0361 32.2046 15.4066 31.9035 15.7741C31.7659 15.9391 31.1189 16.0741 30.9916 15.9616C30.952 15.9256 30.9176 15.6736 30.9176 15.4036V14.9131ZM28.402 14.9506C28.5448 14.9566 28.6825 15.0556 28.7926 15.2506C29.0197 15.6526 29.0025 17.0656 28.7651 17.3881C28.5362 17.6986 28.2403 17.6986 28.0114 17.3881C27.8806 17.2111 27.8221 16.9246 27.8015 16.3336C27.7757 15.6376 27.8015 15.4771 27.9822 15.2236C28.1129 15.0361 28.2592 14.9461 28.402 14.9506ZM24.9487 15.1156H25.2825C25.6868 15.1156 25.8589 15.2506 25.8589 15.5716C25.8589 15.8566 25.7212 15.9691 25.2773 16.0441L24.9504 16.0996V15.6076L24.9487 15.1156ZM39.569 15.1231C39.5484 15.1308 39.5301 15.1426 39.5157 15.1576V18.8776L39.7944 18.9151C39.9476 18.9346 40.1059 18.9586 40.1489 18.9646C40.1902 18.9721 40.2246 18.1531 40.2246 17.1421C40.2246 16.1326 40.1902 15.2896 40.1489 15.2671C40.0342 15.2262 39.9155 15.194 39.7944 15.1711L39.569 15.1231ZM18.9573 15.4501C18.8775 15.4557 18.7986 15.4683 18.7216 15.4876C18.4119 15.5626 18.4085 15.5746 18.0334 17.0251C17.8269 17.8291 17.5929 18.7201 17.5172 19.0081L17.3778 19.5301L17.6978 19.4701C17.8292 19.4482 17.9581 19.4166 18.0833 19.3756C18.1177 19.3576 18.1779 19.1206 18.2175 18.8476C18.2949 18.2926 18.288 18.3016 18.7922 18.2176L19.1587 18.1561L19.2791 18.6091C19.3996 19.0531 19.4099 19.0606 19.723 19.0081C19.8469 18.9918 19.9681 18.9631 20.0844 18.9226C20.136 18.8851 19.1759 15.5431 19.0916 15.4666C19.0744 15.4516 19.0245 15.4456 18.9573 15.4501ZM40.9318 15.4771V17.3161C40.9318 18.7291 40.961 19.1581 41.0591 19.1596C41.1279 19.1596 41.2862 19.1851 41.4101 19.2151C41.6304 19.2676 41.6338 19.2541 41.663 18.1741L41.6906 17.0791L42.2446 18.3046C42.5475 18.9796 42.8675 19.5676 42.9518 19.6111C43.3544 19.8211 43.3648 19.7701 43.3372 17.8411L43.3097 15.9811L43.031 15.9166L42.7522 15.8506V16.8526C42.7488 18.0031 42.7385 17.9986 42.1328 16.6426C41.6889 15.6496 41.546 15.4756 41.1658 15.4756L40.9318 15.4771ZM15.8103 16.2856C15.7896 16.2856 15.6296 16.3306 15.4541 16.3831L15.1358 16.4821V16.9471L15.165 18.4291C15.1788 19.1341 15.1994 19.6966 15.2442 20.2021C15.2631 20.2081 15.2855 20.2051 15.313 20.1946C15.4111 20.1601 15.8653 20.0116 16.3248 19.8616C17.1094 19.6081 17.1593 19.5766 17.1593 19.3306C17.1593 19.1881 17.1438 19.0696 17.1249 19.0696C17.1059 19.0696 16.8255 19.1506 16.502 19.2496C16.2966 19.3154 16.0889 19.3754 15.8791 19.4296C15.8602 19.4296 15.8447 18.7216 15.8447 17.8576C15.8447 16.9921 15.8275 16.2856 15.8103 16.2856ZM44.2044 16.2856C44.1855 16.2856 44.17 17.1286 44.17 18.1591V20.0326L44.497 20.1256C44.6793 20.1781 44.8376 20.2231 44.8514 20.2291C44.8652 20.2336 44.8772 19.3936 44.8772 18.3601V16.4806L44.5589 16.3816C44.4429 16.3435 44.3245 16.311 44.2044 16.2841V16.2856ZM25.3668 16.5946C25.8193 16.6096 26.1015 17.0401 25.8468 17.4466C25.7384 17.6191 25.6059 17.6851 25.3255 17.7061L24.9487 17.7331V17.1991C24.9487 16.7326 24.9745 16.6591 25.162 16.6156C25.2287 16.5998 25.2977 16.5927 25.3668 16.5946ZM18.7388 16.5991L18.873 17.0821C18.947 17.3521 18.9711 17.4796 18.9436 17.5561C18.9428 17.567 18.9393 17.5776 18.9334 17.5871C18.9275 17.5967 18.9192 17.6051 18.9092 17.6116C18.8963 17.6231 18.8819 17.6332 18.8662 17.6416C18.6235 17.7781 18.4566 17.7361 18.522 17.5516C18.5564 17.4586 18.6184 17.2066 18.6597 16.9906L18.7388 16.5991ZM30.5752 19.0891C29.6202 19.1086 28.796 19.3441 28.328 19.7581C27.9099 20.1286 27.8634 20.5231 28.211 20.7256C28.6498 20.9791 29.369 21.0556 31.9414 21.1276C34.2952 21.1936 34.5774 21.2176 34.9869 21.3931C35.4893 21.6106 35.7079 21.8926 35.6924 22.3081C35.6821 22.6531 35.4222 23.0236 35.1882 23.0236C34.7942 23.0236 33.4865 22.7326 32.5625 22.4386C32.1914 22.3148 31.8115 22.2121 31.4252 22.1311L31.3598 22.1266C31.112 22.1326 30.8126 22.3081 29.9523 22.9531C29.5738 23.2366 28.9027 23.6341 28.4605 23.8381C27.0255 24.5026 26.5833 25.0291 26.3837 26.3116C26.2753 27.0061 26.1428 27.2836 25.5251 28.0921C25.0123 28.7641 24.651 29.6671 24.6475 30.2776C24.6475 30.5731 24.5271 31.0441 24.3309 31.5361C24.0728 32.1856 24.0143 32.4766 23.9954 33.2191C23.9748 33.9901 23.9352 34.1791 23.7149 34.5376C23.5549 34.7956 23.4293 35.1826 23.3846 35.5486C23.3209 36.0886 23.2693 36.1876 22.8168 36.6586C22.5432 36.9406 22.3195 37.2211 22.3195 37.2811C22.3195 37.3141 22.2765 37.3861 22.2111 37.4731C22.1973 37.5301 22.1664 37.5706 22.1268 37.5751C22.0915 37.6183 22.0536 37.6599 22.0132 37.6996C21.6278 38.0896 21.4385 38.5381 21.6003 38.6806C21.6846 38.7556 21.7534 38.7316 21.8704 38.5846C22.0924 38.3026 22.2197 38.3371 22.1182 38.6506C22.0597 38.8306 22.07 38.9296 22.1509 38.9611C22.3023 39.0196 22.877 38.9401 23.1781 38.8186C23.3364 38.7541 23.4534 38.5891 23.5394 38.3086C23.6083 38.0791 23.7356 37.8181 23.8216 37.7296C23.9163 37.6306 23.9954 37.3321 24.0212 36.9706C24.0591 36.4426 24.109 36.3241 24.4514 35.9386C24.6751 35.6896 24.9108 35.2831 25.0037 34.9906C25.0949 34.7086 25.2394 34.3561 25.3272 34.2076C25.9759 33.0976 26.394 32.4556 26.468 32.4556C26.6917 32.4556 26.8706 32.8816 26.8706 33.4156C26.8706 33.8356 26.9119 33.9946 27.0324 34.0546C27.1786 34.1266 27.1803 34.1641 27.0478 34.3966C26.9556 34.5651 26.8819 34.7409 26.8276 34.9216C26.7295 35.2816 26.406 35.6671 26.0671 35.8216C25.9122 35.8936 25.575 36.1336 25.3169 36.3571C24.9452 36.6781 24.8471 36.8221 24.8489 37.0576C24.8506 37.4536 24.9968 37.6606 25.1672 37.5076C25.3702 37.3276 25.4631 37.3801 25.3909 37.6351C25.3255 37.8661 25.3358 37.8721 25.6627 37.8151C26.0808 37.7401 26.4594 37.5256 26.5299 37.3246C26.5592 37.2406 26.6228 37.1116 26.671 37.0381C26.7209 36.9631 26.9067 36.6271 27.0874 36.2881C27.3111 35.8681 27.5572 35.5711 27.8669 35.3461C28.1146 35.1661 28.3831 34.8766 28.4657 34.7041C28.7048 34.1971 29.4 33.7621 29.4 34.1221C29.4 34.3321 29.0077 34.9681 28.722 35.2216C28.3624 35.5411 28.0854 35.9701 28.0854 36.2071C28.0854 36.4156 28.2265 36.4771 28.3383 36.3196C28.4485 36.1606 28.5741 36.2236 28.519 36.4096C28.5139 36.4269 28.5099 36.4444 28.507 36.4621C28.5242 36.5071 28.55 36.5446 28.5844 36.5746C28.6274 36.5851 28.6876 36.5896 28.7771 36.5896C29.2967 36.5896 29.7871 36.3286 29.8611 36.0121C29.9187 35.8151 30.0067 35.6259 30.1226 35.4496C30.25 35.2636 30.2947 35.0866 30.2534 34.9381C30.1846 34.6966 30.3704 34.0726 30.5115 34.0726C30.6147 34.0726 30.983 34.7431 31.0759 35.1076C31.1269 35.2764 31.2184 35.4339 31.3443 35.5696C31.5301 35.7511 31.611 35.7616 32.5195 35.7166C33.4607 35.6701 33.5054 35.6566 33.7498 35.3911C33.9322 35.1901 34.0182 34.9636 34.0595 34.5706C34.1318 33.8776 34.4759 33.4066 35.2639 32.9146L35.8524 32.5486L35.9969 32.7496C36.0778 32.8591 36.2499 33.1831 36.3806 33.4681C36.6009 33.9421 36.6095 34.0201 36.4925 34.4281C36.4219 34.6741 36.3944 34.9591 36.4305 35.0626C36.4684 35.1676 36.4185 35.4466 36.3187 35.6926L36.2413 35.8846L36.2258 35.9686C36.2068 36.0434 36.1987 36.12 36.2017 36.1966L36.3789 36.3616C36.6491 36.6196 36.8366 36.6511 36.9227 36.4546C36.9984 36.2746 37.1894 36.2806 37.1894 36.4621C37.1894 36.6526 37.3872 36.5821 37.6161 36.3121C37.7916 36.1021 37.7933 36.0646 37.6436 35.6881C37.5541 35.4661 37.5042 35.2156 37.5283 35.1316C37.5524 35.0461 37.5283 34.8031 37.4733 34.5916C37.3473 34.049 37.3538 33.4894 37.4922 32.9491C37.5903 32.5321 37.5782 32.4406 37.3494 32.0041C37.21 31.7386 37.1154 31.5031 37.1377 31.4836C37.1618 31.4626 37.3528 31.5061 37.5645 31.5796C38.5452 31.9216 39.3109 31.8436 39.7772 31.3546L40.0147 31.1041C40.0184 31.0903 40.0207 31.0762 40.0215 31.0621L39.4555 31.0171C39.3262 31.0065 39.1971 30.9939 39.0683 30.9796C38.7259 30.9301 38.5762 30.8221 38.029 30.3961C37.5232 30.0031 37.506 29.9731 37.5593 29.6221C37.592 29.4136 37.5421 28.9591 37.444 28.5706C37.2857 27.9376 37.2857 27.8461 37.4337 27.3946C37.5214 27.1246 37.5937 26.7841 37.5937 26.6401C37.5937 26.2051 37.3218 25.5361 37.0001 25.1806C36.8194 24.9715 36.6809 24.7372 36.5906 24.4876C36.5078 24.2454 36.3874 24.0142 36.2327 23.8006C35.9987 23.4946 35.9918 23.4571 36.1312 23.1631C36.2288 22.9025 36.2787 22.6302 36.2791 22.3561C36.2791 21.9256 36.2361 21.8176 35.9505 21.5296C35.3311 20.9026 35.0385 20.8441 32.079 20.7676C28.6635 20.6776 28.1267 20.5636 28.6567 20.0431C28.8735 19.8301 29.2279 19.8361 29.9643 20.0641C30.7713 20.3131 31.7573 20.3746 32.3337 20.2126C32.8292 20.0731 32.8378 20.0806 31.9792 19.9216C31.8416 19.8961 31.7263 19.8316 31.7263 19.7761C31.7263 19.7566 31.7401 19.7431 31.7624 19.7326C31.7779 19.7056 31.8502 19.6996 31.9861 19.7131C32.0481 19.7161 32.1203 19.7221 32.2064 19.7326C33.5295 19.8886 33.7498 19.9006 33.7498 19.8121C33.7498 19.6666 32.8619 19.3666 31.9345 19.2001C31.4876 19.1187 31.0316 19.0815 30.5752 19.0891ZM30.9417 19.8256C31.0784 19.8363 31.2128 19.8636 31.3409 19.9066L31.7779 20.0446L31.4648 20.0491L31.4235 20.0506L31.3701 20.0476C31.2154 20.0511 31.0617 20.0255 30.9193 19.9726C30.7421 19.8721 30.7817 19.8181 30.9417 19.8256Z" fill="white"/>
</svg>
