<svg width="60" height="60" viewBox="0 0 60 60" fill="none" xmlns="http://www.w3.org/2000/svg">
<circle cx="30" cy="30" r="30" fill="black"/>
<path d="M33.7256 17.3047L29.9965 21.622L26.2674 17.3047C21.8715 17.4834 17.5568 18.4887 13.5742 20.2622C14.8007 21.8214 16.4842 23.0037 18.4149 23.6616C18.4866 21.9166 20.0762 21.452 21.7615 21.282C22.8099 21.1844 23.8636 21.1465 24.9168 21.1687L29.9965 48.0016L35.0762 21.18C36.1294 21.1579 37.1831 21.1957 38.2316 21.2934C39.9168 21.4633 41.5065 21.9279 41.5782 23.673C43.5088 23.015 45.1924 21.8327 46.4188 20.2735C42.4371 18.4962 38.1224 17.487 33.7256 17.3047Z" fill="white"/>
<path d="M30 12C23.8404 12.0709 17.7441 13.1877 12 15.2975C12.263 15.9943 12.5952 16.6658 12.992 17.3031C18.3591 15.1092 24.1561 14.02 30 14.1076C35.8439 14.02 41.6409 15.1092 47.008 17.3031C47.4048 16.6658 47.737 15.9943 48 15.2975C42.2559 13.1877 36.1596 12.0709 30 12Z" fill="white"/>
</svg>
