<svg width="20" height="20" viewBox="0 0 20 20" fill="none" xmlns="http://www.w3.org/2000/svg">
<path d="M14.3936 0.758789L14.4189 0.760742H14.4443C15.8347 0.760742 17.2094 1.4098 18.1289 2.70508C19.048 3.99979 19.5574 6.01024 19.0488 8.78711C18.5541 11.4896 16.2845 14.1135 13.9912 16.125C12.8633 17.1143 11.7658 17.9246 10.9502 18.4873C10.5578 18.758 10.2314 18.9702 10 19.1172C9.76859 18.9702 9.44222 18.758 9.0498 18.4873C8.2342 17.9246 7.13674 17.1143 6.00879 16.125C3.71552 14.1135 1.44594 11.4896 0.951172 8.78711C0.442622 6.01024 0.952036 3.99979 1.87109 2.70508C2.7906 1.4098 4.16531 0.760742 5.55566 0.760742H5.58105L5.60645 0.758789C6.33658 0.70966 7.06769 0.866251 7.72656 1.21484C8.38598 1.56376 8.95203 2.09403 9.3623 2.75684L10 3.78711L10.6377 2.75684C11.048 2.09403 11.614 1.56376 12.2734 1.21484C12.9323 0.866252 13.6634 0.70966 14.3936 0.758789Z" stroke="#767676" stroke-width="1.5"/>
</svg>
