<svg width="24" height="24" viewBox="0 0 24 24" fill="none" xmlns="http://www.w3.org/2000/svg">
<path d="M3.09805 20H13.148C13.3682 20.5804 13.7576 21.0813 14.2657 21.4379C14.7739 21.7945 15.3774 21.9903 15.998 22C16.6136 21.9942 17.2124 21.7991 17.7133 21.4413C18.2142 21.0836 18.5929 20.5804 18.798 20H20.898C21.036 20.0067 21.1739 19.9862 21.3038 19.9395C21.4338 19.8929 21.5533 19.8211 21.6555 19.7282C21.7577 19.6353 21.8405 19.5232 21.8993 19.3982C21.9581 19.2733 21.9916 19.1379 21.998 19C21.9916 18.8621 21.9581 18.7267 21.8993 18.6018C21.8405 18.4768 21.7577 18.3647 21.6555 18.2718C21.5533 18.1789 21.4338 18.1071 21.3038 18.0605C21.1739 18.0138 21.036 17.9933 20.898 18H18.798C18.5929 17.4196 18.2142 16.9164 17.7133 16.5587C17.2124 16.2009 16.6136 16.0058 15.998 16C15.3774 16.0097 14.7739 16.2055 14.2657 16.5621C13.7576 16.9187 13.3682 17.4196 13.148 18H3.09805C2.96012 17.9933 2.82223 18.0138 2.69225 18.0605C2.56228 18.1071 2.44278 18.1789 2.34061 18.2718C2.23843 18.3647 2.15558 18.4768 2.0968 18.6018C2.03802 18.7267 2.00446 18.8621 1.99805 19C2.00446 19.1379 2.03802 19.2733 2.0968 19.3982C2.15558 19.5232 2.23843 19.6353 2.34061 19.7282C2.44278 19.8211 2.56228 19.8929 2.69225 19.9395C2.82223 19.9862 2.96012 20.0067 3.09805 20ZM15.998 18C16.1958 18 16.3892 18.0586 16.5536 18.1685C16.7181 18.2784 16.8462 18.4346 16.9219 18.6173C16.9976 18.8 17.0174 19.0011 16.9788 19.1951C16.9402 19.3891 16.845 19.5673 16.7052 19.7071C16.5653 19.847 16.3871 19.9422 16.1931 19.9808C15.9992 20.0194 15.7981 19.9996 15.6154 19.9239C15.4326 19.8482 15.2765 19.72 15.1666 19.5556C15.0567 19.3911 14.998 19.1978 14.998 19C14.998 18.7348 15.1034 18.4804 15.2909 18.2929C15.4785 18.1054 15.7328 18 15.998 18Z" fill="#767676"/>
<path d="M3.09766 13H5.14766C5.36785 13.5804 5.75723 14.0813 6.26536 14.4379C6.77349 14.7945 7.37697 14.9903 7.99766 15C8.61318 14.9942 9.212 14.7991 9.7129 14.4413C10.2138 14.0836 10.5925 13.5804 10.7977 13H20.8977C21.1629 13 21.4172 12.8946 21.6048 12.7071C21.7923 12.5196 21.8977 12.2652 21.8977 12C21.8977 11.7348 21.7923 11.4804 21.6048 11.2929C21.4172 11.1054 21.1629 11 20.8977 11H10.7977C10.5925 10.4196 10.2138 9.91644 9.7129 9.55866C9.212 9.20088 8.61318 9.00584 7.99766 9C7.37697 9.0097 6.77349 9.20551 6.26536 9.5621C5.75723 9.91868 5.36785 10.4196 5.14766 11H3.09766C2.83244 11 2.57809 11.1054 2.39055 11.2929C2.20301 11.4804 2.09766 11.7348 2.09766 12C2.09766 12.2652 2.20301 12.5196 2.39055 12.7071C2.57809 12.8946 2.83244 13 3.09766 13ZM7.99766 11C8.19544 11 8.38878 11.0586 8.55323 11.1685C8.71768 11.2784 8.84585 11.4346 8.92154 11.6173C8.99722 11.8 9.01703 12.0011 8.97844 12.1951C8.93986 12.3891 8.84462 12.5673 8.70476 12.7071C8.56491 12.847 8.38673 12.9422 8.19275 12.9808C7.99877 13.0194 7.7977 12.9996 7.61497 12.9239C7.43225 12.8482 7.27607 12.72 7.16619 12.5556C7.05631 12.3911 6.99766 12.1978 6.99766 12C6.99766 11.7348 7.10301 11.4804 7.29055 11.2929C7.47809 11.1054 7.73244 11 7.99766 11Z" fill="#767676"/>
<path d="M3.09766 6H11.6477C11.8679 6.5804 12.2572 7.08132 12.7654 7.4379C13.2735 7.79449 13.877 7.9903 14.4977 8C15.1132 7.99416 15.712 7.79912 16.2129 7.44134C16.7138 7.08356 17.0925 6.58035 17.2977 6H20.8977C21.1629 6 21.4172 5.89464 21.6048 5.70711C21.7923 5.51957 21.8977 5.26522 21.8977 5C21.8977 4.73478 21.7923 4.48043 21.6048 4.29289C21.4172 4.10536 21.1629 4 20.8977 4H17.2977C17.0925 3.41965 16.7138 2.91644 16.2129 2.55866C15.712 2.20088 15.1132 2.00584 14.4977 2C13.877 2.0097 13.2735 2.20551 12.7654 2.5621C12.2572 2.91868 11.8679 3.4196 11.6477 4H3.09766C2.83244 4 2.57809 4.10536 2.39055 4.29289C2.20301 4.48043 2.09766 4.73478 2.09766 5C2.09766 5.26522 2.20301 5.51957 2.39055 5.70711C2.57809 5.89464 2.83244 6 3.09766 6ZM14.4977 4C14.6954 4 14.8888 4.05865 15.0532 4.16853C15.2177 4.27841 15.3458 4.43459 15.4215 4.61732C15.4972 4.80004 15.517 5.00111 15.4784 5.19509C15.4399 5.38907 15.3446 5.56726 15.2048 5.70711C15.0649 5.84696 14.8867 5.9422 14.6927 5.98079C14.4988 6.01937 14.2977 5.99957 14.115 5.92388C13.9322 5.84819 13.7761 5.72002 13.6662 5.55557C13.5563 5.39112 13.4977 5.19778 13.4977 5C13.4977 4.73478 13.603 4.48043 13.7906 4.29289C13.9781 4.10536 14.2324 4 14.4977 4Z" fill="#767676"/>
</svg>
