<svg width="21" height="20" viewBox="0 0 21 20" fill="none" xmlns="http://www.w3.org/2000/svg">
<path fill-rule="evenodd" clip-rule="evenodd" d="M20.802 8.00396H11.1918C11.1918 9.0034 11.1918 11.0021 11.1856 12.0015H16.7545C16.5411 13.001 15.7845 14.4005 14.7155 15.1051C14.7155 15.1051 14.7134 15.1109 14.7114 15.1099C13.29 16.0484 11.4144 16.2614 10.0216 15.9815C7.8386 15.5478 6.11095 13.9646 5.40948 11.9537C5.41356 11.9507 5.41664 11.923 5.4197 11.921C4.98065 10.6737 4.98065 9.0034 5.4197 8.00396H5.41868C5.98435 6.16699 7.76405 4.491 9.95015 4.03226C11.7084 3.65946 13.6924 4.06302 15.1515 5.42826C15.3455 5.23837 17.8368 2.80582 18.0237 2.60793C13.0389 -1.90655 5.05722 -0.318482 2.07061 5.51127H2.06959C2.06959 5.51127 2.07062 5.51151 2.06449 5.5225C0.587015 8.3859 0.648277 11.7599 2.0747 14.4864C2.07062 14.4894 2.06756 14.4912 2.06449 14.4942C3.35716 17.0028 5.70969 18.9267 8.54416 19.6593C11.5553 20.4489 15.3873 19.9092 17.9543 17.5875L17.9573 17.5904C20.1322 15.6315 21.4861 12.2946 20.802 8.00396Z" fill="black"/>
</svg>
