<svg width="12" height="13" viewBox="0 0 12 13" fill="none" xmlns="http://www.w3.org/2000/svg">
<path d="M7.78627 6.02969C7.78627 7.0212 6.98677 7.825 6.00056 7.825C5.01434 7.825 4.21484 7.0212 4.21484 6.02969C4.21484 5.03817 5.01434 4.23438 6.00056 4.23438C6.98677 4.23438 7.78627 5.03817 7.78627 6.02969Z" stroke="#767676"/>
<path d="M6.89814 12.1263C6.65721 12.3596 6.33521 12.49 6.00014 12.49C5.665 12.49 5.343 12.3596 5.10207 12.1263C2.89593 9.97714 -0.0605779 7.57623 1.38122 4.09062C2.16078 2.20596 4.0321 1 6.00014 1C7.96814 1 9.83942 2.20597 10.619 4.09062C12.059 7.57185 9.10971 9.98453 6.89814 12.1263Z" stroke="#767676"/>
</svg>
